<svg width="24" height="24" xmlns="http://www.w3.org/2000/svg" xmlns:xlink="http://www.w3.org/1999/xlink"><defs><path d="M7.667 20a.333.333 0 1 1 0 .667H4.333a.333.333 0 1 1 0-.667h3.334zm9.666-7.333a4.667 4.667 0 0 1 0 9.333H3a1 1 0 0 1-1-1V3a1 1 0 0 1 1-1h14a1.67 1.67 0 0 1 1.667 1.667v1a.667.667 0 0 1-.667.666h-1.333v7.387c.22-.034.443-.052.666-.053zm-.333-10H4.325c.22.287.34.638.342 1v1H18v-1a1 1 0 0 0-1-1zM3 21.333h11.942a4.693 4.693 0 0 1-.868-.666H9A.333.333 0 0 1 9 20h4.509a4.688 4.688 0 0 1-.386-.667h-8.79a.333.333 0 1 1 0-.666h8.53a4.611 4.611 0 0 1-.18-1H4.55a.884.884 0 0 1-.883-.884V15.35a1.8 1.8 0 0 1 1.619-1.793l1.003-.125a1.138 1.138 0 0 0 1.033-1.134v-.633a3.14 3.14 0 0 1-.52-1.093 1.373 1.373 0 0 1-.634-.826l-.014-.034A1.521 1.521 0 0 1 6.1 8.556a.966.966 0 0 1 .62-.583A2.144 2.144 0 0 1 8.812 6h.738c1.1.024 2.003.876 2.091 1.973.03.008.059.02.092.033a.972.972 0 0 1 .529.55c.135.378.116.793-.054 1.157l-.013.03a1.376 1.376 0 0 1-.635.828 3.17 3.17 0 0 1-.523 1.096v.63a1.222 1.222 0 0 0 1.088 1.125.351.351 0 0 1 .033.006l1.223.127c.302.032.59.139.839.312A4.654 4.654 0 0 1 16 12.863v-7.53H4.667A.667.667 0 0 1 4 4.667v-1a1 1 0 0 0-1-1A.333.333 0 0 0 2.667 3v18c0 .184.149.333.333.333zM12.684 17a4.642 4.642 0 0 1 1.058-2.644 1.144 1.144 0 0 0-.43-.14l-1.129-.116c-.682.565-1.785.9-3.003.9-1.21 0-2.308-.33-2.989-.886l-.83.103a1.136 1.136 0 0 0-1.028 1.133v1.433c0 .12.097.217.217.217h8.134zm-1.545-8.361a.333.333 0 0 1-.158-.284v-.222A1.468 1.468 0 0 0 9.55 6.667h-.738a1.469 1.469 0 0 0-1.43 1.466v.222a.334.334 0 0 1-.483.298l-.039-.02a.322.322 0 0 0-.139.17.866.866 0 0 0 .045.643l.015.033c.172.396.226.477.32.481a.333.333 0 0 1 .313.278C7.56 11.104 8.262 12 9.181 12c.919 0 1.62-.896 1.768-1.763a.333.333 0 0 1 .313-.277c.095-.004.148-.085.321-.483l.014-.03a.867.867 0 0 0 .045-.645.322.322 0 0 0-.139-.169l-.04.02a.335.335 0 0 1-.324-.014zm-3.15 3.663c0 .659-.362 1.265-.942 1.578a4.838 4.838 0 0 0 2.133.453 4.794 4.794 0 0 0 2.173-.475 1.82 1.82 0 0 1-.982-1.556 2.127 2.127 0 0 1-2.382 0zm9.344 9.031a4 4 0 1 0 0-8 4 4 0 0 0 0 8zm2.077-6.213a.333.333 0 0 1 .513.427l-3.333 4a.334.334 0 0 1-.242.12h-.015a.333.333 0 0 1-.236-.098l-1.333-1.333a.333.333 0 0 1 .471-.472l1.075 1.076 3.1-3.72z" id="a"/></defs><g fill="none" fill-rule="evenodd"><mask id="b" fill="#fff"><use xlink:href="#a"/></mask><g mask="url(#b)" fill="#007944"><path d="M0 0h24v24H0z"/></g></g></svg>