<svg width="92" height="96" xmlns="http://www.w3.org/2000/svg"><g fill="none" fill-rule="evenodd"><path d="M45.988 57.744a1.863 1.863 0 0 1-.716-.144 1.848 1.848 0 0 1-1.013-1.013 1.893 1.893 0 0 1-.144-.716 1.834 1.834 0 0 1 .144-.718c.047-.112.102-.22.172-.322a1.822 1.822 0 0 1 .84-.691 1.883 1.883 0 0 1 1.083-.107 1.876 1.876 0 0 1 .674 3.395 1.88 1.88 0 0 1-.675.28c-.12.023-.243.036-.365.036z" fill="#000"/><path d="M91.833 93.637L81.475 49.132a1.873 1.873 0 0 0-1.825-1.45h-5.52V37.345c7.393-.926 13.133-7.25 13.133-14.89 0-3.985-1.583-7.788-4.376-10.592.043-.388.063-.777.063-1.168C82.949 4.798 78.152 0 72.255 0S61.56 4.798 61.56 10.694c0 .391.021.78.064 1.168a15.016 15.016 0 0 0-2.503 3.33 14.99 14.99 0 0 0-2.502-3.33c.042-.388.063-.778.063-1.168C56.682 4.798 51.885 0 45.988 0 40.09 0 35.293 4.798 35.293 10.694c0 .391.022.78.063 1.168a14.99 14.99 0 0 0-2.501 3.33 15.016 15.016 0 0 0-2.503-3.33c.043-.388.063-.777.063-1.168C30.415 4.798 25.618 0 19.721 0 13.824 0 9.026 4.798 9.026 10.694c0 .39.021.78.064 1.168a15.006 15.006 0 0 0-4.376 10.591c0 7.64 5.74 13.965 13.133 14.89v10.34h-5.521c-.871 0-1.627.6-1.825 1.449L.143 93.637a1.87 1.87 0 0 0 1.824 2.298h88.041a1.875 1.875 0 0 0 1.825-2.298zM64.86 13.962a1.872 1.872 0 0 0 .601-1.805 6.955 6.955 0 0 1 6.794-8.41 6.954 6.954 0 0 1 6.793 8.411 1.875 1.875 0 0 0 .602 1.804 11.261 11.261 0 0 1 3.865 8.491c0 5.57-4.067 10.208-9.386 11.104v-5.6c.109-.07.212-.153.308-.25l4.72-4.72a1.875 1.875 0 0 0-2.65-2.65l-2.378 2.379V8.953a1.874 1.874 0 0 0-3.748 0v13.763l-2.379-2.379a1.875 1.875 0 0 0-2.65 2.65l4.721 4.72c.095.097.2.18.308.25v5.6c-5.32-.895-9.386-5.534-9.386-11.104a11.26 11.26 0 0 1 3.865-8.49zm5.521 23.382v10.339h-22.52v-10.34c4.85-.606 8.987-3.535 11.26-7.634 2.274 4.1 6.411 7.028 11.26 7.635zM38.594 13.962a1.875 1.875 0 0 0 .6-1.805 6.955 6.955 0 0 1 6.793-8.41 6.955 6.955 0 0 1 6.794 8.411 1.874 1.874 0 0 0 .601 1.804 11.261 11.261 0 0 1 3.865 8.491c0 5.57-4.065 10.208-9.386 11.104v-5.6c.11-.07.213-.153.31-.25l4.72-4.72a1.874 1.874 0 1 0-2.651-2.65l-2.379 2.379V8.953a1.874 1.874 0 1 0-3.747 0v13.763l-2.379-2.379a1.874 1.874 0 0 0-2.65 2.65l4.72 4.72c.097.097.2.18.309.25v5.6c-5.32-.895-9.386-5.534-9.386-11.104 0-3.255 1.409-6.35 3.866-8.49zm5.52 23.382v10.339h-22.52v-10.34c4.849-.606 8.987-3.535 11.26-7.634 2.274 4.1 6.412 7.028 11.26 7.635zM8.46 22.454a11.26 11.26 0 0 1 3.865-8.492 1.874 1.874 0 0 0 .602-1.804 6.955 6.955 0 0 1 6.793-8.41 6.955 6.955 0 0 1 6.793 8.41 1.874 1.874 0 0 0 .602 1.804 11.261 11.261 0 0 1 3.865 8.491c0 5.57-4.067 10.208-9.386 11.104v-5.6c.109-.07.212-.153.308-.25l4.72-4.72a1.874 1.874 0 0 0-2.65-2.65l-2.378 2.379V8.953a1.874 1.874 0 0 0-3.748 0v13.763l-2.379-2.379a1.875 1.875 0 0 0-2.65 2.65l4.721 4.72c.095.097.2.18.308.25v5.6c-5.32-.895-9.386-5.534-9.386-11.104zm3.877 69.733l4.021-19.304a1.874 1.874 0 0 0-3.668-.764L8.51 92.187H4.326l9.487-40.757h10.135l-6.324 40.757h-5.287zm22.21 0h-13.13L27.74 51.43h2.22l-1.22 12.94a1.875 1.875 0 0 0 3.732.352l1.253-13.292h2.54l-1.718 40.757zm13.313 0V63.348a1.874 1.874 0 1 0-3.747 0v28.84h-5.815l1.717-40.758h11.943l1.717 40.757H47.86zm9.567 0L55.71 51.43h2.54l1.253 13.292a1.874 1.874 0 1 0 3.73-.352l-1.22-12.94h2.22l6.325 40.757h-13.13zm25.51 0l-4.18-20.068a1.874 1.874 0 0 0-3.67.764l4.022 19.304H74.35L68.027 51.43h10.135l9.487 40.757h-4.711z" fill="#007944" fill-rule="nonzero"/></g></svg>