<svg width="24" height="24" xmlns="http://www.w3.org/2000/svg" xmlns:xlink="http://www.w3.org/1999/xlink"><defs><path d="M15.662 9.315v.004h1.663c.552 0 .999.447.999.998v1.33a.998.998 0 0 1-.999.999h-.665v.694a1.77 1.77 0 0 1 1.417 1.54.836.836 0 0 1 .488.484c.113.314.098.661-.044.964a1.242 1.242 0 0 1-.515.699c-.117.44-.352.838-.68 1.153v.042c0 .318.417.745.863.89a.77.77 0 0 0 .177.039l.96.1a1.48 1.48 0 0 1 1.326 1.482v.563a.68.68 0 0 1-.762.665H2.784a.68.68 0 0 1-.762-.665v-.563c-.004-.76.57-1.4 1.326-1.48l.788-.1a.858.858 0 0 0 .16-.033c.393-.135.674-.485.72-.898v-.215a2.526 2.526 0 0 1-.517-.98 1.192 1.192 0 0 1-.504-.672 1.28 1.28 0 0 1-.054-.99.829.829 0 0 1 .44-.466l.047-.018a1.759 1.759 0 0 1 1.586-1.557v-.678H5.35a.998.998 0 0 1-.998-.998v-1.331c0-.551.447-.998.998-.998h1.663c0-.03.005-.059.013-.087.072-.674.6-1.209 1.273-1.289l.754-.1a.83.83 0 0 0 .154-.033c.38-.145.644-.493.68-.898v-.167a2.487 2.487 0 0 1-.596-1.07 1.188 1.188 0 0 1-.489-.666c-.263-.614-.092-1.236.379-1.44l.041-.016c.086-.864.8-1.53 1.669-1.553h.562a1.724 1.724 0 0 1 1.668 1.553l.028.01c.485.21.655.832.402 1.42a1.238 1.238 0 0 1-.499.69 2.487 2.487 0 0 1-.583 1.057v.18c0 .35.439.76.824.89l.023.007a.665.665 0 0 0 .142.033l.92.1c.673.08 1.2.615 1.273 1.29a.348.348 0 0 1 .012.082v.003zm-4.491-1.992a1.66 1.66 0 0 1-.652-.133c-.053.237-.156.46-.303.653a4.139 4.139 0 0 0 2.003.016c-.18-.19-.31-.423-.38-.675a1.66 1.66 0 0 1-.668.139zM9.583 5.075a.34.34 0 0 1 .318.277c.105.642.611 1.305 1.27 1.305.658 0 1.164-.663 1.27-1.305a.333.333 0 0 1 .313-.278c.076-.098.135-.209.174-.327a.555.555 0 0 0 .004-.54.333.333 0 0 1-.468-.305V3.73a1.054 1.054 0 0 0-1.012-1.065h-.562c-.57.022-1.02.494-1.014 1.065v.172a.333.333 0 0 1-.466.304.526.526 0 0 0-.008.516c.044.125.104.244.18.353zm-4.8 11.35a.349.349 0 0 1 .325.276c.11.652.635 1.327 1.32 1.327.248-.003.487-.088.681-.242.004-.003.009-.005.013-.009a1.77 1.77 0 0 0 .627-1.076.333.333 0 0 1 .313-.277.974.974 0 0 0 .19-.336.64.64 0 0 0 .046-.478.214.214 0 0 0-.049-.077.332.332 0 0 1-.476-.3v-.173c0-.588-.467-1.068-1.054-1.083h-.58a1.083 1.083 0 0 0-1.052 1.084v.174a.333.333 0 0 1-.476.3.217.217 0 0 0-.05.076.615.615 0 0 0 .034.453c.044.128.108.25.188.36zm2.953 3h-.002a1.82 1.82 0 0 1-.658-.857 1.72 1.72 0 0 1-1.43-.062c-.087.354-.284.67-.561.906.431.149.885.223 1.342.22a3.99 3.99 0 0 0 1.309-.208zm-1.39 1.87h3.897a.355.355 0 0 0 .096-.01v-.552a.817.817 0 0 0-.73-.82l-.956-.1c-.04-.003-.087-.017-.13-.026a4.194 4.194 0 0 1-2.096.51 4.237 4.237 0 0 1-2.094-.504 1.138 1.138 0 0 1-.124.02l-.785.1a.82.82 0 0 0-.737.82v.552a.376.376 0 0 0 .097.01h3.563zm13.64-.562a.817.817 0 0 0-.73-.82l-.955-.1c-.04-.003-.087-.017-.13-.026a4.194 4.194 0 0 1-2.096.51 4.237 4.237 0 0 1-2.094-.504 1.138 1.138 0 0 1-.124.02l-.785.1a.819.819 0 0 0-.737.82v.552a.374.374 0 0 0 .097.01h7.458a.355.355 0 0 0 .097-.01v-.552zm-2.604-1.309a1.82 1.82 0 0 1-.658-.856 1.719 1.719 0 0 1-1.43-.062 1.74 1.74 0 0 1-.561.906c.431.149.885.223 1.342.22.444.004.886-.066 1.307-.208zm.04-4.364c0-.588-.468-1.068-1.055-1.083h-.58a1.083 1.083 0 0 0-1.054 1.083v.174a.332.332 0 0 1-.476.3.216.216 0 0 0-.05.076.615.615 0 0 0 .034.453c.045.128.109.25.189.36.16.007.294.122.326.278.11.652.635 1.327 1.32 1.327.248-.003.487-.088.681-.242.004-.003.009-.005.013-.009a1.77 1.77 0 0 0 .627-1.076.333.333 0 0 1 .313-.277.974.974 0 0 0 .19-.336.64.64 0 0 0 .046-.478.213.213 0 0 0-.049-.077.333.333 0 0 1-.476-.3v-.173zm-1.427-1.749v-.665H6.68v.665h.039c.883.019 1.615.69 1.71 1.568a.836.836 0 0 1 .488.484 1.27 1.27 0 0 1-.043.965 1.242 1.242 0 0 1-.515.699c-.118.44-.353.838-.681 1.153v.042c0 .318.417.745.864.89a.766.766 0 0 0 .177.039l.96.1c.757.08 1.33.72 1.325 1.482v.563h.666v-.563c-.004-.76.57-1.4 1.326-1.48l.788-.1a.86.86 0 0 0 .16-.033c.393-.135.674-.485.72-.898v-.215a2.526 2.526 0 0 1-.517-.98 1.192 1.192 0 0 1-.504-.672c-.15-.31-.17-.666-.055-.99a.829.829 0 0 1 .44-.466l.047-.018a1.758 1.758 0 0 1 1.711-1.57h.209zm1.33-3.327H5.35a.333.333 0 0 0-.333.333v1.33c0 .185.15.334.333.334h11.976a.333.333 0 0 0 .333-.333v-1.331a.333.333 0 0 0-.333-.333zM7.757 9.32l7.16.001a.365.365 0 0 0 .073-.006.802.802 0 0 0-.684-.71l-.916-.1a1.31 1.31 0 0 1-.28-.06 1.785 1.785 0 0 1-.244-.1c-.511.21-1.06.315-1.612.31a4.273 4.273 0 0 1-1.622-.31 1.362 1.362 0 0 1-.505.157l-.75.1a.804.804 0 0 0-.692.711.378.378 0 0 0 .072.007zM20.32 2c.55 0 .998.447.998.998v3.327a.998.998 0 0 1-.998.998h-1.362c-.131 0-.26.04-.369.113l-1.227.818a.665.665 0 0 1-1.035-.555v-.043a.333.333 0 0 0-.332-.333h-.333a.998.998 0 0 1-.998-.998V2.998c0-.551.447-.998.998-.998h4.658zm.332 4.325V2.998a.333.333 0 0 0-.332-.333h-4.658a.333.333 0 0 0-.333.333v3.327c0 .184.15.332.333.332h.333a1 1 0 0 1 .998.999v.043l1.227-.818c.219-.146.475-.224.738-.224h1.362a.333.333 0 0 0 .332-.332zm-.998-2.994a.333.333 0 0 1 0 .665h-3.327a.333.333 0 0 1 0-.665h3.327zm0 1.33a.333.333 0 0 1 0 .666h-3.327a.333.333 0 0 1 0-.666h3.327z" id="a"/></defs><g fill="none" fill-rule="evenodd"><mask id="b" fill="#fff"><use xlink:href="#a"/></mask><g mask="url(#b)" fill="#FFF46B"><path d="M0 0h24v24H0z"/></g></g></svg>