<svg width="24" height="24" xmlns="http://www.w3.org/2000/svg" xmlns:xlink="http://www.w3.org/1999/xlink"><defs><path d="M20.221 10.237L18.89 10.1a1.385 1.385 0 0 1-1.253-1.27v-.578a3.46 3.46 0 0 0 .575-1.228c.361-.137.522-.513.69-.907l.016-.033c.33-.768.117-1.573-.5-1.84a1.29 1.29 0 0 0-.12-.045 2.323 2.323 0 0 0-2.254-2.18h-.805a2.323 2.323 0 0 0-2.255 2.18c-.046.014-.092.03-.137.05-.601.26-.813 1.064-.484 1.833l.015.035c.169.393.33.77.691.906.107.433.296.842.558 1.204a2.308 2.308 0 0 0-.98-.22h-1.33c-.477 0-.942.148-1.332.421v-.176c.271-.367.466-.785.575-1.228.362-.137.523-.513.691-.907l.015-.033c.33-.768.117-1.573-.5-1.84a1.287 1.287 0 0 0-.12-.045 2.323 2.323 0 0 0-2.254-2.18h-.805A2.323 2.323 0 0 0 5.332 4.2c-.047.014-.093.03-.138.05-.6.26-.813 1.064-.483 1.833l.015.035c.168.393.33.77.69.906.11.443.305.861.576 1.229v.577c0 .657-.497 1.206-1.15 1.27l-1.102.138A1.93 1.93 0 0 0 2 12.163v1.564c0 .516.419.934.935.934h6.368c.133.265.303.508.507.722a1.507 1.507 0 0 1-1.373 1.48l-.832.156a2.162 2.162 0 0 0-1.945 2.157v1.783c0 .564.457 1.02 1.02 1.022h10.6a1.022 1.022 0 0 0 1.021-1.022v-1.783a2.154 2.154 0 0 0-1.918-2.152l-.885-.164a1.497 1.497 0 0 1-1.347-1.477 3.01 3.01 0 0 0 .505-.722h6.37a.936.936 0 0 0 .935-.934v-1.564a1.93 1.93 0 0 0-1.74-1.926zm-1.91.402a4.819 4.819 0 0 1-2.467.687.893.893 0 0 0-.352-.41.866.866 0 0 0-.517-.109v-.47c0-.444-.127-.878-.366-1.251a2.249 2.249 0 0 0 2.366-.18 2.02 2.02 0 0 0 1.337 1.733zm-3.342 6.784l-1.491 1.367-.392-.91 1.253-.785c.19.144.403.255.63.328zm-5.35-.33l1.255.786-.39.911-1.495-1.367c.227-.074.44-.186.63-.33zm2.694 1.56c.184 0 .333.15.333.333v.333a.333.333 0 0 1-.333.333h-.665a.333.333 0 0 1-.333-.333v-.333c0-.183.15-.332.333-.332h.665zm-.627 1.664h.59l.373.998h-1.336l.373-.998zm.807-2.85c-.01.006-.015.016-.023.023a.32.32 0 0 0-.067.067c-.006.008-.015.012-.02.02l-.247.411h-.31l-.25-.412c-.005-.008-.014-.012-.02-.02a.32.32 0 0 0-.066-.067c-.01-.007-.014-.017-.023-.023l-1.38-.865c.152-.22.263-.467.326-.728.958.6 2.174.6 3.132 0 .063.261.173.508.325.73l-1.377.864zm2.065-4.421c-.008.002-.014.007-.02.01a.3.3 0 0 0-.062.03.327.327 0 0 0-.05.033.345.345 0 0 0-.043.048.32.32 0 0 0-.035.051.344.344 0 0 0-.02.058.318.318 0 0 0-.014.066c0 .007-.005.014-.005.021a2.329 2.329 0 0 1-4.657-.002c0-.007-.004-.013-.004-.02a.328.328 0 0 0-.014-.064.285.285 0 0 0-.145-.192.336.336 0 0 0-.062-.032A1.43 1.43 0 0 1 8.654 12c0-.263.056-.453.151-.51a.195.195 0 0 1 .09-.021c.049.277.145.544.285.788a.333.333 0 1 0 .583-.32 2.263 2.263 0 0 1-.194-.475c.006-.007.01-.015.015-.022.005-.007.014-.015.02-.024.231-.064.472-.091.713-.081.895 0 1.687-.575 2.152-1.003a1.554 1.554 0 0 0 1.508 1.003.864.864 0 0 1 .358.045c.003.007.008.01.01.016a.155.155 0 0 0 .006.016l.003.004a1.557 1.557 0 0 1-.161.644.333.333 0 0 0 .62.24c.116-.263.186-.544.207-.831a.223.223 0 0 1 .133.018c.096.057.154.252.154.522a1.42 1.42 0 0 1-.75 1.037zM13.367 6.41c-.126-.006-.19-.117-.377-.555l-.015-.036c-.19-.44-.087-.852.13-.958l.055.029a.333.333 0 0 0 .484-.297v-.246a1.652 1.652 0 0 1 1.594-1.663h.805a1.65 1.65 0 0 1 1.593 1.663v.246a.333.333 0 0 0 .484.297l.054-.029c.216.1.322.514.131.959l-.015.035c-.188.438-.251.55-.377.555a.333.333 0 0 0-.312.278c-.165.975-.942 1.984-1.961 1.984-1.02 0-1.797-1.009-1.96-1.984a.333.333 0 0 0-.313-.278zm-2.052 2.262h1.33a1.665 1.665 0 0 1 1.664 1.664v.355a2.273 2.273 0 0 0-.332-.023c-.899 0-.991-.912-.998-1.019v-.006a.335.335 0 0 0-.03-.103.173.173 0 0 0-.005-.02.336.336 0 0 0-.067-.086c-.005-.005-.008-.011-.013-.015-.005-.005-.003-.005-.005-.007a2.986 2.986 0 0 0-.112-.058.299.299 0 0 0-.053-.007.277.277 0 0 0-.068-.01c-.003 0-.005.002-.008.003a.372.372 0 0 0-.066.017.346.346 0 0 0-.06.018.388.388 0 0 0-.036.028.355.355 0 0 0-.064.052c0 .002-.004.003-.005.005-.01.012-.998 1.208-2.07 1.208a3.832 3.832 0 0 0-.666.048v-.38a1.665 1.665 0 0 1 1.664-1.664zm-5.6-2.262c-.125-.006-.189-.117-.376-.555l-.016-.036c-.19-.44-.086-.852.131-.958l.054.029a.333.333 0 0 0 .484-.297v-.246a1.652 1.652 0 0 1 1.594-1.663h.805a1.65 1.65 0 0 1 1.593 1.663v.246a.333.333 0 0 0 .484.297l.055-.029c.215.1.321.514.13.959l-.015.035c-.188.438-.251.55-.376.555a.333.333 0 0 0-.313.278c-.164.975-.941 1.984-1.96 1.984-1.02 0-1.797-1.009-1.962-1.984a.333.333 0 0 0-.312-.278zm.936 2.492a2.275 2.275 0 0 0 2.673 0c.002.067.009.134.02.2a2.31 2.31 0 0 0-.358 1.234v.471a.871.871 0 0 0-.522.11.89.89 0 0 0-.35.412c-.042 0-.083.005-.126.005a4.99 4.99 0 0 1-2.64-.674A1.93 1.93 0 0 0 6.65 8.904zm-3.716 5.093a.27.27 0 0 1-.27-.27v-1.563a1.27 1.27 0 0 1 1.148-1.266l.687-.085C5.19 11.537 6.525 12 7.988 12A2.108 2.108 0 0 0 9 13.588c.011.137.032.274.062.408H2.935zm3.39 6.963v-1.783a1.51 1.51 0 0 1 1.375-1.5l.484-.09 2.196 2.011a.334.334 0 0 0 .294.08.359.359 0 0 0 .04-.019c.066.182.184.34.338.456l-.45 1.201H6.68a.353.353 0 0 1-.356-.356zm11.311-1.783v1.783a.353.353 0 0 1-.356.356h-3.92l-.45-1.2a.995.995 0 0 0 .338-.457.357.357 0 0 0 .04.02.337.337 0 0 0 .294-.08l2.196-2.012.51.095c.768.078 1.35.724 1.348 1.495zm3.66-5.45a.27.27 0 0 1-.27.27H14.9c.03-.132.05-.267.061-.402a2.078 2.078 0 0 0 1.013-1.584v-.024c1.345-.064 2.54-.512 3.174-1.192l1.008.103c.65.066 1.143.613 1.14 1.266v1.564z" id="a"/></defs><g fill="none" fill-rule="evenodd"><mask id="b" fill="#fff"><use xlink:href="#a"/></mask><g mask="url(#b)" fill="#007944"><path d="M0 0h24v24H0z"/></g></g></svg>