<svg width="24" height="24" xmlns="http://www.w3.org/2000/svg" xmlns:xlink="http://www.w3.org/1999/xlink"><defs><path d="M21 16.667h-1.333v-2.334a.667.667 0 0 0-.667-.666h-.667v-.477a2.159 2.159 0 0 0-1.922-2.157l-.887-.164a1.5 1.5 0 0 1-1.349-1.48c.465-.488.75-1.12.81-1.791A2.081 2.081 0 0 0 16 6.01c0-.671-.262-.967-.482-1.096A.866.866 0 0 0 15 4.805v-.472A2.336 2.336 0 0 0 12.667 2h-1.334A2.336 2.336 0 0 0 9 4.333v.473a.872.872 0 0 0-.524.11C8.26 5.047 8 5.34 8 6c.069.66.445 1.25 1.014 1.591.058.675.344 1.31.81 1.8a1.51 1.51 0 0 1-1.375 1.483l-.833.156a2.166 2.166 0 0 0-1.95 2.16v.477H5a.667.667 0 0 0-.667.666v2.334H3a1 1 0 0 0-1 1V21a1 1 0 0 0 1 1h3.333a1 1 0 0 0 1-1v-3.333a1 1 0 0 0-1-1H5v-2.334h.667v.644c0 .565.458 1.022 1.023 1.023h4.977v.667h-1.334a1 1 0 0 0-1 1V21a1 1 0 0 0 1 1h3.334a1 1 0 0 0 1-1v-3.333a1 1 0 0 0-1-1h-1.334V16h4.977c.565 0 1.023-.458 1.023-1.023v-.644H19v2.334h-1.333a1 1 0 0 0-1 1V21a1 1 0 0 0 1 1H21a1 1 0 0 0 1-1v-3.333a1 1 0 0 0-1-1zm-14.333 1V21c0 .184-.15.333-.334.333H3A.333.333 0 0 1 2.667 21v-3.333c0-.184.149-.334.333-.334h3.333c.184 0 .334.15.334.334zm7.333 0V21c0 .184-.15.333-.333.333h-3.334A.333.333 0 0 1 10 21v-3.333c0-.184.15-.334.333-.334h3.334c.184 0 .333.15.333.334zm-2.67-2.334l.375-1h.59l.374 1h-1.338zm-1.697-4.23l1.259.788-.392.913-1.497-1.37c.227-.075.44-.186.63-.33zm2.367-.77c.555 0 1.099-.157 1.57-.45.062.26.172.508.325.73l-1.382.864c-.01.006-.014.017-.023.024a.323.323 0 0 0-.064.067c-.006.008-.016.012-.021.02l-.25.412h-.31l-.25-.413c-.005-.008-.015-.013-.02-.021a.323.323 0 0 0-.065-.067c-.009-.006-.014-.017-.023-.023l-1.384-.867c.154-.22.265-.468.327-.729.47.295 1.015.452 1.57.453zm.667 3c0 .184-.15.334-.334.334h-.666a.333.333 0 0 1-.334-.334V13c0-.184.15-.333.334-.333h.666c.184 0 .334.149.334.333v.333zm.442-1.442l1.256-.786c.19.145.402.256.63.33L13.5 12.804l-.391-.913zm-1.776-9.224h1.334c.92 0 1.665.746 1.666 1.666v.376A1.358 1.358 0 0 0 14 4.667c-.9 0-.993-.914-1-1.021a.35.35 0 0 0-.012-.047.32.32 0 0 0-.017-.062.317.317 0 0 0-.043-.07.35.35 0 0 0-.018-.029c-.003-.002-.006-.003-.008-.006a.317.317 0 0 0-.075-.053.28.28 0 0 0-.034-.019.321.321 0 0 0-.07-.016.324.324 0 0 0-.061-.008l-.015-.002-.111.03a.308.308 0 0 0-.059.036.285.285 0 0 0-.04.024c-.012.013-1.333 1.243-2.437 1.243-.112 0-.224.014-.333.041v-.375a1.669 1.669 0 0 1 1.666-1.666zm-1.67 4.677a.32.32 0 0 0-.014-.066.301.301 0 0 0-.02-.059.335.335 0 0 0-.035-.051.3.3 0 0 0-.041-.049.31.31 0 0 0-.05-.033.336.336 0 0 0-.061-.033c-.007-.003-.011-.008-.018-.01A1.433 1.433 0 0 1 8.667 6c0-.263.056-.454.151-.511a.19.19 0 0 1 .085-.021c.029.304.155.592.36.819a.333.333 0 1 0 .529-.407 1.374 1.374 0 0 1-.23-.39.637.637 0 0 1 .438-.157c.939 0 1.921-.64 2.467-1.063.22.654.843 1.086 1.533 1.063a.634.634 0 0 1 .406.134 1.534 1.534 0 0 1-.202.323.333.333 0 1 0 .537.395 1.53 1.53 0 0 0 .338-.718.2.2 0 0 1 .1.02c.096.056.154.252.154.522-.072.445-.35.83-.751 1.037-.01.003-.016.009-.024.012-.009.003-.018.009-.028.013a.339.339 0 0 0-.09.058l-.002.004a.324.324 0 0 0-.068.093.307.307 0 0 0-.013.036.343.343 0 0 0-.02.082c0 .007-.004.013-.004.02a2.333 2.333 0 0 1-4.667-.002.165.165 0 0 0-.003-.018zm-3.33 7.633V13.19a1.51 1.51 0 0 1 1.378-1.502l.485-.091 2.2 2.015c.08.073.19.103.295.08a.278.278 0 0 0 .04-.019 1 1 0 0 0 .339.457l-.451 1.203h-3.93a.353.353 0 0 1-.356-.356zm11.334 0a.353.353 0 0 1-.357.356h-3.929l-.45-1.203a.997.997 0 0 0 .339-.457.286.286 0 0 0 .04.02.334.334 0 0 0 .295-.08l2.2-2.016.512.095a1.502 1.502 0 0 1 1.35 1.498v1.787zM21.333 21a.333.333 0 0 1-.333.333h-3.333a.333.333 0 0 1-.334-.333v-3.333c0-.184.15-.334.334-.334H21c.184 0 .333.15.333.334V21z" id="a"/></defs><g fill="none" fill-rule="evenodd"><mask id="b" fill="#fff"><use xlink:href="#a"/></mask><g mask="url(#b)" fill="#007944"><path d="M0 0h24v24H0z"/></g></g></svg>