<svg width="24" height="24" xmlns="http://www.w3.org/2000/svg" xmlns:xlink="http://www.w3.org/1999/xlink"><defs><path d="M22 3.667a1 1 0 0 1-1 1v10a1 1 0 1 1 0 2h-4.571l1.147 4.519a.665.665 0 0 1-.65.814h-.653a.667.667 0 0 1-.653-.536l-1.213-4.797H13v3.666a.667.667 0 0 1-.667.667h-.666a.667.667 0 0 1-.667-.667v-3.666H9.593L8.377 21.48a.663.663 0 0 1-.65.52h-.654a.667.667 0 0 1-.653-.798l1.151-4.535h-4.57a1 1 0 1 1 0-2v-10a1 1 0 1 1 0-2h4.332v-.334a.333.333 0 1 1 .667 0v.334h8v-.334a.333.333 0 1 1 .667 0v.334H21a1 1 0 0 1 1 1zm-19.333 0c0 .184.149.333.333.333h18a.333.333 0 1 0 0-.667H3a.333.333 0 0 0-.333.334zm5.06 18v-.334.334zm0-.334l1.178-4.666H8.26L7.07 21.35l.658-.017zm4.606-1v-3.666h-.666v3.666h.666zm4.594 1l-1.186-4.666h-.646l1.178 4.666h.654zm4.406-5.666a.333.333 0 0 0-.333-.334H3A.333.333 0 1 0 3 16h18c.184 0 .333-.15.333-.333zm-1-1v-10H3.667v10h16.666zM6.086 13.202l.174-.869a.992.992 0 0 1 .407-1.605V10c0-.368.298-.667.666-.667h4.334V8.66a.66.66 0 0 1-.58-.79L11.26 7a1 1 0 1 1 1.48 0l.174.869a.66.66 0 0 1-.58.79v.674h4.333c.368 0 .666.299.666.667v.728a.99.99 0 0 1 .407 1.605l.174.87a.667.667 0 0 1-.654.797h-.52a.667.667 0 0 1-.654-.798l.174-.869a.992.992 0 0 1 .407-1.605V10H14v.728a.99.99 0 0 1 .407 1.605l.173.87a.666.666 0 0 1-.653.797h-.52a.667.667 0 0 1-.654-.798l.174-.869a.99.99 0 0 1 .406-1.605V10h-2.666v.728a.99.99 0 0 1 .406 1.605l.174.87a.667.667 0 0 1-.654.797h-.52a.667.667 0 0 1-.653-.798l.173-.869A.99.99 0 0 1 10 10.728V10H7.333v.728a.99.99 0 0 1 .407 1.605l.174.87A.667.667 0 0 1 7.26 14h-.52a.667.667 0 0 1-.654-.798zm4.247-1.869a.333.333 0 1 0 0 .667.333.333 0 0 0 0-.667zm-.26 2h.52l-.135-.679a.614.614 0 0 1-.249 0l-.136.68zm3.594-2a.333.333 0 1 0 0 .667.333.333 0 0 0 0-.667zm-.26 2h.52l-.136-.679a.615.615 0 0 1-.249 0l-.135.68zm3.593-2A.333.333 0 1 0 17 12a.333.333 0 0 0 0-.667zm-.26 2h.52l-.136-.679a.615.615 0 0 1-.248 0l-.136.68zm-4.864-6.012L11.74 8h.52l-.136-.68a.62.62 0 0 1-.248 0zM12 6a.333.333 0 1 0 0 .667A.333.333 0 0 0 12 6zm-5.26 7.333h.52l-.136-.679a.973.973 0 0 1-.124.013.973.973 0 0 1-.124-.013l-.136.68zm.26-2A.333.333 0 1 0 7 12a.333.333 0 0 0 0-.667z" id="a"/></defs><g fill="none" fill-rule="evenodd"><mask id="b" fill="#fff"><use xlink:href="#a"/></mask><g mask="url(#b)" fill="#FFF46B"><path d="M0 0h24v24H0z"/></g></g></svg>