<svg width="24" height="24" xmlns="http://www.w3.org/2000/svg" xmlns:xlink="http://www.w3.org/1999/xlink"><defs><path d="M20.65 4.699c.735 0 1.33.596 1.33 1.33v11.645a1.33 1.33 0 0 1-1.33 1.33h-5.165l.4.998h.107c1.042 0 1.664.498 1.664 1.331a.665.665 0 0 1-.666.666H7.01a.665.665 0 0 1-.666-.666c0-.833.622-1.33 1.664-1.33h.107l.4-.999H3.35a1.33 1.33 0 0 1-1.33-1.33V6.03a1.33 1.33 0 0 1 1.33-1.331h3.327a.333.333 0 1 1 0 .665H3.35a.665.665 0 0 0-.665.666v11.644c0 .367.298.665.665.665h17.3a.665.665 0 0 0 .665-.665V6.03a.665.665 0 0 0-.665-.666h-3.327a.333.333 0 1 1 0-.665h3.327zm-3.66 16.634c0-.165 0-.665-.998-.665H8.008c-.998 0-.998.5-.998.665h9.98zm-1.822-1.33l-.4-.999H9.232l-.4.998h6.337zm-4.831-2.995h3.326a.333.333 0 0 1 0 .666h-3.326a.333.333 0 0 1 0-.666zM12 5.364a1.663 1.663 0 1 1 0 3.327 1.663 1.663 0 0 1 0-3.327zm0 2.662a.998.998 0 1 0 0-1.996.998.998 0 0 0 0 1.996zM16.703 9.2l-1.61-.44c-.121.43-.307.84-.55 1.214l.75.377a.662.662 0 0 1 .367.595v1.443a1.61 1.61 0 0 1 .332-.038 1.67 1.67 0 0 1 1.527 1.005 1.325 1.325 0 0 1 1.42.99h1.045V7.029a.333.333 0 0 0-.332-.333h-1.664a.333.333 0 1 1 0-.665h1.664c.551 0 .998.447.998.998v8.317a.998.998 0 0 1-.998.998H4.348a.998.998 0 0 1-.998-.998V7.028c0-.551.447-.998.998-.998h1.664a.333.333 0 1 1 0 .665H4.348a.333.333 0 0 0-.332.333v7.319H5.06a1.325 1.325 0 0 1 1.42-.991 1.67 1.67 0 0 1 1.527-1.005c.112 0 .223.014.332.038v-1.443a.662.662 0 0 1 .366-.595l.753-.377a4.465 4.465 0 0 1-.551-1.214l-1.611.44a.666.666 0 0 1-.825-.786l.507-2.28c.048-.22.205-.4.415-.48l1.783-.668a8.635 8.635 0 0 1 1.94-2.613 1.335 1.335 0 0 1 1.767 0 8.635 8.635 0 0 1 1.939 2.613l1.783.669c.21.079.367.26.415.479l.507 2.28a.665.665 0 0 1-.825.786zm-.332-2.922l-1.232-.463c.12.394.184.802.188 1.213 0 .362-.03.725-.09 1.082l1.642.448-.508-2.28zM12 10.741c1.592 0 2.661-1.493 2.661-3.713 0-1.02-.532-2.1-1.15-2.954A3.92 3.92 0 0 1 12 4.366a3.92 3.92 0 0 1-1.51-.292c-.62.854-1.151 1.933-1.151 2.954 0 1.82.718 3.148 1.854 3.57.258.095.532.143.807.143zm.302.648c-.1.01-.2.017-.302.017-.102 0-.202-.008-.302-.017l.302.602.302-.602zm-.745-8.517c-.227.204-.44.424-.638.657.348.116.714.174 1.081.172.367.002.733-.056 1.081-.172a6.899 6.899 0 0 0-.638-.657.669.669 0 0 0-.886 0zM7.121 8.558l1.642-.448c-.06-.357-.09-.72-.09-1.082.005-.411.068-.82.188-1.212l-1.233.462-.507 2.28zm1.885 2.388v1.29l.764-.733.005-.004c.006-.006.014-.007.02-.012a.322.322 0 0 1 .095-.058c.004-.001.006-.006.01-.006l.865-.29a3.003 3.003 0 0 1-.882-.627l-.877.44zm7.964 2.871a1.002 1.002 0 0 0-.978-.8.978.978 0 0 0-.343.069.33.33 0 0 1-.552.17l-.768-.737v1.828a.333.333 0 1 1-.666 0v-2.369l-.781-.261-.287.572a.665.665 0 0 1-1.19 0l-.287-.572-.781.261v2.369a.333.333 0 1 1-.666 0v-1.828l-.768.737a.33.33 0 0 1-.552-.17.978.978 0 0 0-.343-.07 1.002 1.002 0 0 0-.978.801.333.333 0 0 1-.456.24.665.665 0 0 0-.895.622.333.333 0 0 1-.333.333h-1.33v.333c0 .184.149.333.332.333h15.304a.333.333 0 0 0 .332-.333v-.333h-1.33a.333.333 0 0 1-.333-.332.665.665 0 0 0-.895-.623.333.333 0 0 1-.456-.24zm-1.976-1.581v-1.29l-.876-.44a3.01 3.01 0 0 1-.881.628l.865.29c.003.001.006.006.01.006a.325.325 0 0 1 .094.057c.006.005.015.007.02.012l.005.005.763.732z" id="a"/></defs><g fill="none" fill-rule="evenodd"><mask id="b" fill="#fff"><use xlink:href="#a"/></mask><g mask="url(#b)" fill="#007944"><path d="M0 0h24v24H0z"/></g></g></svg>