<svg width="24" height="24" xmlns="http://www.w3.org/2000/svg" xmlns:xlink="http://www.w3.org/1999/xlink"><defs><path d="M3.33 21.98h17.3a1.33 1.33 0 001.331-1.33v-2.59a2.987 2.987 0 00-2.687-2.979l-1.896-.197h-.006l-.307-.033a2.323 2.323 0 01-2.09-2.316v-.372a3.64 3.64 0 001.287-2.28c.68-.362 1.055-1.48 1.055-2.209a1.182 1.182 0 00-1.012-1.285V5.014a2.998 2.998 0 00-2.994-2.995H10.65a2.998 2.998 0 00-2.994 2.995V6.39a1.182 1.182 0 00-1.012 1.285c0 .729.374 1.847 1.055 2.21a3.64 3.64 0 001.287 2.28v.37a2.323 2.323 0 01-2.09 2.318l-.308.033h-.005l-1.896.197A2.987 2.987 0 002 18.061v2.589c0 .735.596 1.33 1.33 1.33zm5.215-7.119l2.02 1.262-.701 1.636-2.52-2.311c.44-.102.85-.303 1.2-.587zm2.437 2.795c0-.184.15-.333.333-.333h1.33c.185 0 .334.149.334.333v.665a.333.333 0 01-.333.333h-1.33a.333.333 0 01-.334-.333v-.665zm4.434-2.795c.35.284.76.485 1.2.587l-2.519 2.31-.7-1.635 2.02-1.262zm-3.87 4.458h.87l.748 1.996h-2.367l.749-1.996zm9.75-1.258v2.589a.665.665 0 01-.666.665h-6.755l-.789-2.103a.995.995 0 00.552-.836l.034.076a.333.333 0 00.53.114l3.272-3.002 1.73.18a2.324 2.324 0 012.092 2.317zM10.65 2.685h2.661a2.331 2.331 0 012.329 2.329v1.031a1.427 1.427 0 00-.306-.033h-.06c-1.492 0-1.965-2.23-1.97-2.253a.266.266 0 00-.015-.036.323.323 0 00-.027-.064.312.312 0 00-.04-.051.307.307 0 00-.026-.033c-.006-.005-.013-.007-.02-.012a.32.32 0 00-.055-.03.318.318 0 00-.06-.026.353.353 0 00-.058-.007.335.335 0 00-.07 0h-.02a.352.352 0 00-.037.016.311.311 0 00-.064.027.31.31 0 00-.052.04.309.309 0 00-.034.025c-.02.024-2.1 2.404-3.74 2.404a2.296 2.296 0 00-.665.088V5.014a2.332 2.332 0 012.329-2.33zM8.333 9.62c0-.003-.002-.005-.003-.008a1.19 1.19 0 00-.04-.124.32.32 0 00-.03-.038.31.31 0 00-.052-.06.324.324 0 00-.037-.019.322.322 0 00-.079-.039l-.006-.003c-.37-.096-.776-.962-.776-1.654a.624.624 0 01.168-.507c-.006.34.067.678.212.987a.333.333 0 10.599-.293c-.074-.153-.247-.65-.078-.921.136-.218.497-.264.775-.264 1.473 0 3.094-1.447 3.835-2.196.288.826.995 2.221 2.492 2.198.1-.004.275.007.324.09.1.175-.067.705-.283 1.071a.333.333 0 00.573.339c.201-.337.336-.71.395-1.098.238.085.33.263.33.596 0 .693-.406 1.558-.776 1.655l-.006.003a.321.321 0 00-.093.044.292.292 0 00-.022.013.329.329 0 00-.062.07.343.343 0 00-.022.027.357.357 0 00-.022.062.31.31 0 00-.018.063c0 .003-.003.005-.003.008a2.981 2.981 0 01-1.163 2.102 2.992 2.992 0 01-1.82.609h-1.33A2.991 2.991 0 018.333 9.62zm2.982 3.378h1.33a3.668 3.668 0 001.667-.397c.013.644.232 1.265.627 1.774l-2.137 1.335c-.009.006-.014.017-.023.024a.324.324 0 00-.067.066c-.006.008-.015.013-.02.021l-.5.837h-.422l-.502-.837c-.005-.008-.015-.013-.021-.021a.317.317 0 00-.067-.067c-.009-.007-.014-.017-.023-.023L9.02 14.374a2.98 2.98 0 00.627-1.773 3.667 3.667 0 001.668.397zm-8.65 5.063a2.324 2.324 0 012.091-2.317l1.73-.18 3.272 3.002a.333.333 0 00.53-.114l.034-.076c.02.358.231.677.552.836l-.788 2.103H3.331a.665.665 0 01-.666-.665v-2.59z" id="a"/></defs><g fill="none" fill-rule="evenodd"><mask id="b" fill="#fff"><use xlink:href="#a"/></mask><g mask="url(#b)" fill="#FFF46B"><path d="M0 0h24v24H0z"/></g></g></svg>