<?xml version="1.0" encoding="UTF-8"?>
<svg width="24px" height="24px" viewBox="0 0 24 24" version="1.1" xmlns="http://www.w3.org/2000/svg" xmlns:xlink="http://www.w3.org/1999/xlink">
    <!-- Generator: Sketch 52 (66869) - http://www.bohemiancoding.com/sketch -->
    <title>028-team</title>
    <desc>Created with Sketch.</desc>
    <defs>
        <path d="M20.2213999,10.2367812 L18.8890108,10.100329 C18.2178667,10.0380421 17.688962,9.50152287 17.6361172,8.82946513 L17.6361172,8.25197975 C17.9068897,7.8845029 18.1022783,7.46707479 18.2110137,7.02375729 C18.5722466,6.88730504 18.7333699,6.51145221 18.9016509,6.11747681 L18.9165753,6.08427751 C19.2462842,5.31612449 19.0341435,4.51066031 18.4176718,4.24354285 C18.3783809,4.22679092 18.3383285,4.21201871 18.2975147,4.19922632 C18.2236538,2.99841613 17.2451876,2.05254015 16.04255,2.01949313 L15.2375427,2.01949313 C14.0352096,2.05284475 13.0573526,2.99841613 12.9834917,4.19892175 C12.9367386,4.21308476 12.8905945,4.22968441 12.8455166,4.24841614 C12.2450353,4.50837595 12.0327425,5.31307868 12.3624513,6.08153627 L12.3773758,6.11656309 C12.545809,6.51038617 12.70678,6.88639132 13.0680129,7.02269124 C13.1747685,7.45626216 13.3642179,7.86500973 13.6260051,8.22669955 C13.3192922,8.08263277 12.98471,8.00801047 12.6458638,8.00785815 L11.3151499,8.00785815 C10.8389376,8.00770587 10.3741472,8.15451386 9.9844359,8.42833211 L9.9844359,8.25197975 C10.2550561,7.8845029 10.4504447,7.46707479 10.5593324,7.02375729 C10.9205653,6.88730504 11.0815363,6.51145221 11.2499695,6.11747681 L11.264894,6.08427751 C11.5946028,5.31612449 11.3823099,4.51066031 10.7658382,4.24354285 C10.7266996,4.22679092 10.6864949,4.21201871 10.6458333,4.19922632 C10.5719725,2.99841613 9.59350634,2.05254015 8.39086864,2.01949313 L7.58570906,2.01949313 C6.38352824,2.05284475 5.40567127,2.99841613 5.33181042,4.19892175 C5.28505724,4.21308476 5.23891322,4.22968441 5.19383525,4.24841614 C4.59487692,4.50837595 4.38106113,5.31307868 4.71076994,6.08153627 L4.72569439,6.11656309 C4.89397536,6.51038617 5.05509864,6.88639132 5.41633159,7.02269124 C5.52537155,7.46646563 5.72106476,7.88419834 5.9921418,8.25197975 L5.9921418,8.82946513 C5.99244636,9.48568467 5.49506578,10.0349963 4.84219661,10.0997198 L3.73961376,10.2367812 C2.7500304,10.3347039 1.99695414,11.1686464 1.99999995,12.1629508 L1.99999995,13.7266691 C2.0007614,14.2426292 2.4187987,14.6608187 2.93491103,14.6614279 L9.30339301,14.6614279 C9.4357334,14.9256518 9.60645102,15.1690119 9.80975874,15.3834369 C9.79848927,16.1553972 9.20577484,16.7941033 8.43670805,16.8627863 L7.60504992,17.0185794 C6.49805065,17.1302084 5.65649361,18.0634442 5.65953946,19.175926 L5.65953946,20.9592471 C5.66014858,21.5230264 6.11701993,21.9798977 6.68079919,21.9805069 L17.2802145,21.9805069 C17.8439937,21.9798977 18.3010173,21.5230264 18.3014742,20.9592471 L18.3014742,19.175926 C18.307109,18.0730385 17.4788012,17.1440668 16.3826145,17.0236051 L15.4976548,16.8598928 C14.7378777,16.7829861 14.1578034,16.1467166 14.1512549,15.3831323 C14.3541057,15.1685551 14.5242142,14.9254995 14.65625,14.6614279 L21.0262549,14.6614279 C21.5422149,14.6608187 21.9602523,14.2426292 21.9610137,13.7266691 L21.9610137,12.1629508 C21.9642118,11.1686464 21.2109832,10.3347039 20.2213999,10.2367812 Z M18.3115254,10.6386757 C17.5660636,11.0862573 16.7133894,11.3239827 15.8439632,11.3262671 C15.7717776,11.1563109 15.6487269,11.0128533 15.4917154,10.9158443 C15.3348562,10.8267544 15.1540875,10.7888341 14.9746893,10.8074135 L14.9746893,10.3365314 C14.9751462,9.89321395 14.8479837,9.45903387 14.6087354,9.08576997 C14.927327,9.25115741 15.2809454,9.33781067 15.6400463,9.33857211 C16.1191521,9.33735379 16.5859223,9.18612938 16.9747198,8.90606724 C17.0418799,9.69584552 17.564693,10.3733857 18.3115254,10.6386757 Z M14.9690546,17.4227583 L13.477522,18.7904788 L13.0862878,17.8794774 L14.3391813,17.0953338 C14.5292398,17.239096 14.7421418,17.3498112 14.9690546,17.4227583 Z M9.61848194,17.0936587 L10.874269,17.8794774 L10.4834917,18.7904788 L8.98937012,17.4227583 C9.21582603,17.3485929 9.42842346,17.2374208 9.61848194,17.0936587 Z M12.3132614,18.653722 C12.4969237,18.653722 12.6458638,18.8026621 12.6458638,18.9863244 L12.6458638,19.319079 C12.6458638,19.5027412 12.4969237,19.6516813 12.3132614,19.6516813 L11.6479045,19.6516813 C11.4640899,19.6516813 11.3151499,19.5027412 11.3151499,19.319079 L11.3151499,18.9863244 C11.3151499,18.8026621 11.4640899,18.653722 11.6479045,18.653722 L12.3132614,18.653722 Z M11.6858248,20.3170383 L12.2753411,20.3170383 L12.648605,21.3151499 L11.3125609,21.3151499 L11.6858248,20.3170383 Z M12.4928119,17.466618 C12.4835222,17.4727096 12.4784966,17.4833699 12.4699683,17.490223 C12.4445358,17.509107 12.4221491,17.5314937 12.4034174,17.5567739 C12.3973258,17.5648453 12.3880361,17.5691094 12.3830105,17.5774854 L12.1355385,17.988365 L11.8254752,17.988365 L11.576328,17.5764194 C11.5713024,17.5681957 11.5620127,17.5637793 11.5560733,17.5558601 C11.5371893,17.5304277 11.5148026,17.508041 11.4895224,17.4893092 C11.4808419,17.4823039 11.4758163,17.4716435 11.4665265,17.4657042 L10.0861659,16.6006944 C10.2392178,16.3804825 10.349933,16.133772 10.4125244,15.8730507 C11.3705836,16.4729228 12.5869274,16.4729228 13.5448343,15.8730507 C13.607578,16.1340765 13.7179885,16.3812439 13.8704313,16.6020651 L12.4928119,17.466618 Z M14.5578704,13.0456262 C14.5501036,13.047606 14.5444688,13.0529361 14.5371589,13.0556774 C14.5155337,13.0632919 14.4949744,13.0734954 14.4756335,13.0858309 C14.4578156,13.0954252 14.4410636,13.1065424 14.4253777,13.1191825 C14.4099963,13.1336501 14.3959856,13.1496406 14.3834978,13.1666971 C14.3700963,13.1826876 14.3582176,13.1997442 14.3481664,13.218019 C14.3397905,13.2364462 14.3329374,13.2557871 14.3279118,13.2755848 C14.3209064,13.2970577 14.3161854,13.3194445 14.3139011,13.3419834 C14.3139011,13.3494457 14.3093324,13.3556896 14.3093324,13.3629995 C14.3088755,14.1949622 13.8646443,14.9635721 13.1438536,15.3791728 C12.4232152,15.7949257 11.5353618,15.7944688 10.8151803,15.3781068 C10.0948465,14.9617447 9.65137667,14.1926779 9.65168127,13.3607152 C9.65168127,13.3540144 9.6480263,13.3483797 9.6477217,13.3416788 C9.64543738,13.319749 9.64086864,13.2979715 9.63416786,13.2768031 C9.61634989,13.1945663 9.56320053,13.1242081 9.48873051,13.0849172 C9.46938962,13.072277 9.44867812,13.0616167 9.42720513,13.0532407 C9.42141812,13.0498904 9.4153265,13.0468445 9.40923488,13.0442556 C9.00596977,12.83577 8.72560306,12.4483431 8.65372197,12 C8.65372197,11.7371467 8.71022174,11.5466313 8.80509866,11.4896747 C8.83296782,11.4755117 8.86388279,11.468354 8.8952546,11.4686586 C8.94353067,11.7461318 9.03977823,12.0129447 9.18003776,12.2572186 C9.23531921,12.3648879 9.34481601,12.4340278 9.46573465,12.4376827 C9.58680552,12.4413377 9.70026194,12.3790509 9.76209184,12.2748843 C9.8237695,12.1707176 9.82407406,12.0412707 9.76285332,11.9367995 C9.68046416,11.7864888 9.61528385,11.627193 9.56883527,11.4621101 C9.57462229,11.4554094 9.57827726,11.4474903 9.58360743,11.4404849 C9.58878533,11.4334795 9.59777044,11.4254081 9.60310061,11.416423 C9.83549586,11.3521564 10.076267,11.3245918 10.3170382,11.334643 C11.2123538,11.334643 12.0038073,10.7597466 12.4692069,10.3322673 C12.7052571,10.9546784 13.3113731,11.3577912 13.9765777,11.334643 C14.0981055,11.3244396 14.2202425,11.3401255 14.3352218,11.3804825 C14.337963,11.3865741 14.3428363,11.3905336 14.3458821,11.3961684 C14.3472527,11.4016508 14.3489279,11.4071333 14.3509077,11.4124635 L14.3542581,11.416423 C14.3472527,11.6399854 14.2922758,11.8594359 14.1928302,12.0598501 C14.1264316,12.2313292 14.2115619,12.4241289 14.3830409,12.4905275 C14.5543677,12.5569262 14.7471674,12.4717958 14.8137183,12.300469 C14.9290022,12.0368543 14.9985989,11.7555738 15.019615,11.4686586 C15.0648453,11.4610441 15.1112939,11.4675926 15.1527169,11.4873903 C15.2491167,11.5441947 15.3066825,11.7391265 15.3066825,12.0086805 C15.2355629,12.4535209 14.9576328,12.8382066 14.5578704,13.0456262 Z M13.3668068,6.41094052 C13.2413195,6.40530578 13.1778144,6.29413373 12.9901925,5.85568956 L12.9749634,5.82005358 C12.7856664,5.37932504 12.8884625,4.96768394 13.1059333,4.86199435 C13.1222283,4.8709795 13.1392848,4.8805738 13.1601486,4.89062495 C13.2632493,4.94301287 13.3863,4.93829189 13.4849842,4.87783256 C13.5836684,4.81752554 13.6438231,4.71016078 13.6439754,4.59442004 L13.6439754,4.34831868 C13.63697,3.45376456 14.3434454,2.71622194 15.2375427,2.68485009 L16.04255,2.68485009 C16.9366472,2.71622194 17.6431226,3.45376456 17.6361172,4.34831868 L17.6361172,4.59442004 C17.6361172,4.71016078 17.696272,4.81767786 17.7949562,4.87813716 C17.8936404,4.93859646 18.0166911,4.94346975 18.1197917,4.89092956 C18.1391326,4.88118297 18.1564937,4.87189322 18.174464,4.86229895 C18.3896504,4.96204917 18.4957968,5.37597463 18.3051292,5.82081502 L18.2899001,5.85599412 C18.1022783,6.29443833 18.0386209,6.40561034 17.9132858,6.41124512 C17.7567313,6.41870734 17.6266752,6.5342958 17.6009381,6.6887183 C17.4364644,7.66413861 16.6593263,8.67321515 15.6400463,8.67321515 C14.6207663,8.67321515 13.8434759,7.66413861 13.6791545,6.6887183 C13.6535697,6.53414348 13.5233614,6.41840274 13.3668068,6.41094052 Z M11.3151499,8.67321515 L12.6458638,8.67321515 C13.5641752,8.67428115 14.3082663,9.41837231 14.3093324,10.3365314 L14.3093324,10.6915205 C14.1990741,10.6759868 14.0879021,10.6685246 13.9765777,10.6692861 C13.0783687,10.6692861 12.9856238,9.75706627 12.9786184,9.65031067 C12.9786184,9.64787402 12.9786184,9.64589426 12.9786184,9.64360989 C12.9745066,9.60797391 12.96476,9.57325168 12.9496832,9.54081383 C12.948008,9.53411305 12.9460283,9.52756455 12.9435916,9.52116837 C12.9262305,9.48903508 12.9038438,9.45994759 12.8770407,9.43497196 C12.8721674,9.43040326 12.8691216,9.42400704 12.864096,9.41974291 C12.8590704,9.4153265 12.8612025,9.4150219 12.8587659,9.41304213 C12.821607,9.39354895 12.7842958,9.3739035 12.7469846,9.3545626 C12.7294713,9.35060307 12.7116533,9.3483187 12.6938353,9.34755726 C12.6716009,9.3417702 12.6487573,9.33872439 12.6259138,9.33857211 C12.6233248,9.33857211 12.6211928,9.34024732 12.6182992,9.34055188 C12.595608,9.34420685 12.5733735,9.3499939 12.5517483,9.35776069 C12.531646,9.36202486 12.5118482,9.36796416 12.4928119,9.37573098 C12.4800195,9.38441153 12.467684,9.39385355 12.4559576,9.40405699 C12.4328094,9.41898147 12.4114888,9.43649488 12.3924525,9.45629262 C12.3924525,9.45827242 12.3883407,9.45903387 12.3871223,9.46101363 C12.3770712,9.47289231 11.3890107,10.6686769 10.3164291,10.6686769 C10.0936281,10.6654788 9.87097952,10.6817739 9.65107211,10.7172575 L9.65107211,10.3365314 C9.65213816,9.41806775 10.3966862,8.67397659 11.3151499,8.67321515 Z M5.71512547,6.41094052 C5.58963814,6.40530578 5.52613299,6.29413373 5.33851116,5.85568956 L5.32312983,5.82005358 C5.13383279,5.37932504 5.23662886,4.96768394 5.4542519,4.86199435 C5.47054698,4.8709795 5.48760352,4.8805738 5.50846734,4.89062495 C5.61156796,4.94301287 5.73446632,4.93829189 5.83315053,4.87783256 C5.93183475,4.81752554 5.9921418,4.71016078 5.9921418,4.59442004 L5.9921418,4.34831868 C5.98513642,3.45376456 6.69176411,2.71622194 7.58570906,2.68485009 L8.39086864,2.68485009 C9.28496587,2.71622194 9.99144128,3.45376456 9.9844359,4.34831868 L9.9844359,4.59442004 C9.9844359,4.71016078 10.0445906,4.81767786 10.1432748,4.87813716 C10.2419591,4.93859646 10.3650097,4.94346975 10.4681104,4.89092956 C10.4874513,4.88118297 10.5046601,4.87189322 10.5226304,4.86229895 C10.737969,4.96204917 10.8441155,5.37597463 10.6534479,5.82081502 L10.6380665,5.85599412 C10.4504447,6.29443833 10.3869396,6.40561034 10.2616045,6.41124512 C10.1050499,6.41870734 9.97499391,6.5342958 9.94910451,6.6887183 C9.78478315,7.66413861 9.00764498,8.67321515 7.98836497,8.67321515 C6.96893272,8.67321515 6.19179455,7.66413861 6.02747319,6.6887183 C6.00173607,6.53414348 5.87168005,6.41840274 5.71512547,6.41094052 Z M6.65064567,8.90332599 C7.4477339,9.4820297 8.52655944,9.4820297 9.32364763,8.90332599 C9.32623659,8.97033379 9.33278509,9.03688474 9.34329313,9.10297878 C9.11013644,9.47213083 8.98632431,9.89991469 8.98632431,10.3365314 L8.98632431,10.8080226 C8.8047941,10.7892909 8.62204556,10.8279727 8.46366349,10.9187378 C8.30726119,11.016356 8.18497195,11.1599659 8.11370002,11.329922 C8.07182018,11.329922 8.03054945,11.334643 7.98836497,11.334643 C7.06259136,11.3593141 6.14808722,11.1260051 5.3474963,10.6606055 C6.10392297,10.4015594 6.62216738,9.70285087 6.65064567,8.90378287 L6.65064567,8.90332599 Z M2.93491103,13.9960709 C2.8633345,13.9960709 2.79480381,13.9677449 2.74424338,13.9171845 C2.69383524,13.866624 2.66535691,13.7980933 2.66535691,13.7266691 L2.66535691,12.1629508 C2.66383403,11.5079495 3.16106233,10.9593994 3.81317002,10.8965034 L4.49984768,10.8119822 C5.1897234,11.5365802 6.52454921,12 7.98836497,12 C8.05735257,12.6588085 8.43198708,13.2469542 9.00003043,13.5879325 C9.01129995,13.7252985 9.03216373,13.8615984 9.06216494,13.9960709 L2.93491103,13.9960709 Z M6.32489642,20.9592471 L6.32489642,19.175926 C6.32626703,18.395742 6.92263643,17.7454618 7.69992688,17.6766265 L8.18390595,17.5857091 L10.3796296,19.5974659 C10.4410027,19.6536611 10.5211074,19.6848807 10.604258,19.6850329 C10.6277108,19.6850329 10.6511635,19.6825963 10.674007,19.677723 C10.6877132,19.6720882 10.7011148,19.665692 10.7140594,19.6583821 C10.7801535,19.8399123 10.8977217,19.9982944 11.0522965,20.1141874 L10.6018214,21.3151499 L6.68079919,21.3151499 C6.58622683,21.3160636 6.49500485,21.2789048 6.42799705,21.2120492 C6.36114153,21.1450414 6.32398266,21.0538195 6.32489642,20.9592471 Z M17.6361172,19.175926 L17.6361172,20.9592471 C17.6371833,21.0538195 17.5998721,21.1450414 17.5330166,21.2120492 C17.4660088,21.2789048 17.3749391,21.3160636 17.2802145,21.3151499 L13.3591922,21.3151499 L12.9096308,20.1141874 C13.0643579,19.9982944 13.1819262,19.8399123 13.2480202,19.6583821 C13.2609649,19.665692 13.2742142,19.6720882 13.2879203,19.677723 C13.3109162,19.6825963 13.3343689,19.6850329 13.3578216,19.6850329 C13.4409722,19.6848807 13.521077,19.6536611 13.5824501,19.5974659 L15.7781737,17.586166 L16.2888036,17.680586 C17.055586,17.7585587 17.6382493,18.4053363 17.6361172,19.175926 Z M21.2956567,13.7266691 C21.2956567,13.7980933 21.2673307,13.866624 21.2167703,13.9171845 C21.1662098,13.9677449 21.0976791,13.9960709 21.0262549,13.9960709 L14.8985441,13.9960709 C14.9282408,13.8635782 14.9489523,13.7292581 14.960374,13.5938718 C15.5311587,13.2576145 15.9071638,12.6691642 15.9726487,12.0100512 C15.9726487,12.0013706 15.9726487,11.9946698 15.9726487,11.9859893 C17.3178302,11.921875 18.5123965,11.4736842 19.1468385,10.7940119 L20.1551536,10.8971126 C20.80452,10.9627497 21.2979411,11.5103862 21.2956567,12.1629508 L21.2956567,13.7266691 Z" id="path-1"></path>
    </defs>
    <g id="028-team" stroke="none" stroke-width="1" fill="none" fill-rule="evenodd">
        <mask id="mask-2" fill="white">
            <use xlink:href="#path-1"></use>
        </mask>
        <g fill-rule="nonzero"></g>
        <g id="color/GreenVeg" mask="url(#mask-2)" fill="#007944">
            <rect id="Rectangle" x="0" y="0" width="24" height="24"></rect>
        </g>
    </g>
</svg>