<?xml version="1.0" encoding="UTF-8"?>
<svg width="24px" height="24px" viewBox="0 0 24 24" version="1.1" xmlns="http://www.w3.org/2000/svg" xmlns:xlink="http://www.w3.org/1999/xlink">
    <!-- Generator: Sketch 52 (66869) - http://www.bohemiancoding.com/sketch -->
    <title>005-hierarchy</title>
    <desc>Created with Sketch.</desc>
    <defs>
        <path d="M20.999939,16.6665955 L19.666626,16.6665955 L19.666626,14.333374 C19.666626,13.9651795 19.3681641,13.6667175 18.9999695,13.6667175 L18.333313,13.6667175 L18.333313,13.190033 C18.3389588,12.0851441 17.5093384,11.1543579 16.4110108,11.0333557 L15.5243225,10.8693237 C14.762909,10.7924194 14.1813965,10.154602 14.1749878,9.38937378 C14.6396179,8.90078733 14.9252625,8.26953123 14.9856873,7.59799193 C15.5577393,7.26077267 15.9346313,6.6708679 15.999939,6.01000974 C15.999939,5.33892817 15.7376404,5.04336543 15.5176087,4.91366575 C15.3605957,4.82455442 15.1796265,4.78656004 15.0000305,4.80532832 L15.0000305,4.33337399 C14.9985047,3.04522699 13.9546509,2.00152583 12.6666565,1.99999995 L11.3333435,1.99999995 C10.0453491,2.00152583 9.00149534,3.04522699 8.99996948,4.33337399 L8.99996948,4.80563352 C8.81808471,4.7868652 8.63497924,4.82562254 8.47628783,4.9167175 C8.25900268,5.04626461 8.000061,5.33999629 8.000061,5.99993895 C8.06903076,6.66018673 8.44454955,7.24948119 9.01370237,7.59097287 C9.07199096,8.26556397 9.35794065,8.90032959 9.82470702,9.39105225 C9.81372069,10.1646728 9.21969604,10.8049316 8.44897459,10.8735962 L7.61569213,11.0296936 C6.50714107,11.1415405 5.66424559,12.0758362 5.666687,13.190033 L5.666687,13.6667175 L5.00003047,13.6667175 C4.6318359,13.6667175 4.33337399,13.9651795 4.33337399,14.333374 L4.33337399,16.6665955 L3.00006097,16.6665955 C2.44769284,16.6665955 1.99999995,17.114441 1.99999995,17.6666565 L1.99999995,20.999939 C1.99999995,21.5523072 2.44769284,22 3.00006097,22 L6.33334349,22 C6.88555904,22 7.33340451,21.5523072 7.33340451,20.999939 L7.33340451,17.6666565 C7.33340451,17.114441 6.88555904,16.6665955 6.33334349,16.6665955 L5.00003047,16.6665955 L5.00003047,14.333374 L5.666687,14.333374 L5.666687,14.9766846 C5.66714473,15.5415649 6.12506099,15.9994812 6.68994138,15.999939 L11.6665955,15.999939 L11.6665955,16.6665955 L10.3332825,16.6665955 C9.78106686,16.6665955 9.33337401,17.114441 9.33337401,17.6666565 L9.33337401,20.999939 C9.33337401,21.5523072 9.78106686,22 10.3332825,22 L13.6667175,22 C14.2189331,22 14.666626,21.5523072 14.666626,20.999939 L14.666626,17.6666565 C14.666626,17.114441 14.2189331,16.6665955 13.6667175,16.6665955 L12.3334045,16.6665955 L12.3334045,15.999939 L17.3100586,15.999939 C17.874939,15.9994812 18.3328553,15.5415649 18.333313,14.9766846 L18.333313,14.333374 L18.9999695,14.333374 L18.9999695,16.6665955 L17.6666565,16.6665955 C17.114441,16.6665955 16.6665955,17.114441 16.6665955,17.6666565 L16.6665955,20.999939 C16.6665955,21.5523072 17.114441,22 17.6666565,22 L20.999939,22 C21.5523072,22 22,21.5523072 22,20.999939 L22,17.6666565 C22,17.114441 21.5523072,16.6665955 20.999939,16.6665955 Z M6.66659544,17.6666565 L6.66659544,20.999939 C6.66659544,21.1841126 6.51736446,21.3333436 6.33334349,21.3333436 L3.00006097,21.3333436 C2.81588742,21.3333436 2.66665644,21.1841126 2.66665644,20.999939 L2.66665644,17.6666565 C2.66665644,17.4826355 2.81588742,17.3334046 3.00006097,17.3334046 L6.33334349,17.3334046 C6.51736446,17.3334046 6.66659544,17.4826355 6.66659544,17.6666565 Z M13.9999695,17.6666565 L13.9999695,20.999939 C13.9999695,21.1841126 13.8507385,21.3333436 13.6667175,21.3333436 L10.3332825,21.3333436 C10.1492615,21.3333436 10.0000305,21.1841126 10.0000305,20.999939 L10.0000305,17.6666565 C10.0000305,17.4826355 10.1492615,17.3334046 10.3332825,17.3334046 L13.6667175,17.3334046 C13.8507385,17.3334046 13.9999695,17.4826355 13.9999695,17.6666565 Z M11.3305969,15.3332825 L11.7047424,14.333374 L12.2952576,14.333374 L12.6694031,15.3332825 L11.3305969,15.3332825 Z M9.63336179,11.1036987 L10.8916016,11.8910523 L10.500061,12.8036804 L9.00271604,11.4332886 C9.22961424,11.3591309 9.44277952,11.2475891 9.63336179,11.1036987 Z M12,10.3332825 C12.5549622,10.3325195 13.0986328,10.1762695 13.5693665,9.88238522 C13.6319275,10.1437683 13.7424011,10.3914184 13.8952942,10.6126709 L12.5133057,11.4773865 C12.5036926,11.4833374 12.4986572,11.4943237 12.4896545,11.5010376 C12.4652405,11.5201111 12.4437256,11.5425415 12.4257202,11.5677185 C12.4196167,11.5759582 12.4100037,11.5803833 12.4046631,11.5889282 L12.1553345,12 L11.8446655,12 L11.5953369,11.5874023 C11.5899963,11.5787048 11.5803833,11.5742798 11.5742798,11.56604 C11.5562744,11.540863 11.5347595,11.5184326 11.5103455,11.4993591 C11.5013428,11.4926453 11.4963074,11.4816589 11.4866943,11.475708 L10.1033325,10.6090088 C10.2568359,10.3886719 10.3676148,10.1414795 10.4303284,9.88040159 C10.9009094,10.1750488 11.4447327,10.3319092 12,10.3332825 Z M12.6666565,13.333313 C12.6666565,13.5174866 12.5174255,13.6667175 12.3334045,13.6667175 L11.6665955,13.6667175 C11.4825745,13.6667175 11.3333435,13.5174866 11.3333435,13.333313 L11.3333435,13.000061 C11.3333435,12.8158875 11.4825745,12.6666565 11.6665955,12.6666565 L12.3334045,12.6666565 C12.5174255,12.6666565 12.6666565,12.8158875 12.6666565,13.000061 L12.6666565,13.333313 Z M13.1090088,11.8910523 L14.3646545,11.1053772 C14.5544739,11.2497253 14.767334,11.3611145 14.9943848,11.4346619 L13.499939,12.8036804 L13.1090088,11.8910523 Z M11.3333435,2.66665644 L12.6666565,2.66665644 C13.5866089,2.66772456 14.3323059,3.41326902 14.333374,4.33337399 L14.333374,4.70904535 C14.2244263,4.6811218 14.1124268,4.66693114 13.9999695,4.66662594 C13.1000061,4.66662594 13.0069275,3.75262449 13.000061,3.64566035 C12.9970093,3.62979121 12.9928894,3.61422726 12.9877014,3.59896847 C12.9843445,3.57775875 12.9788513,3.55700679 12.9713745,3.53701777 C12.9599304,3.51184078 12.945282,3.48834222 12.9277344,3.46697996 C12.9222412,3.45706172 12.9164429,3.44729609 12.9100342,3.43798824 C12.9072876,3.43569941 12.9039307,3.43463129 12.9016418,3.4323425 C12.879364,3.41113277 12.8540344,3.39328 12.8267212,3.37939449 C12.81604,3.37222285 12.8049011,3.3656616 12.7933045,3.36001582 C12.7707214,3.35223386 12.7473755,3.34689328 12.7237244,3.34429925 C12.7034302,3.33956906 12.6828308,3.33682246 12.6619263,3.33605953 C12.6567383,3.33605953 12.6520081,3.33361812 12.6466675,3.33407589 C12.6097412,3.34384152 12.5726623,3.35360714 12.5357361,3.36337277 C12.5148316,3.37329097 12.4951477,3.38565058 12.4769898,3.39999386 C12.4634094,3.40686031 12.4502869,3.41494746 12.4379273,3.42395015 C12.4249573,3.43661496 11.1043091,4.66662594 10.0000305,4.66662594 C9.88757323,4.66693114 9.77572632,4.68096918 9.66662596,4.70828242 L9.66662596,4.33337399 C9.66769409,3.41326902 10.4133911,2.66772456 11.3333435,2.66665644 Z M9.66265866,7.34439084 C9.66036987,7.32165525 9.65563964,7.2993774 9.64862061,7.27770994 C9.64419554,7.25756834 9.63778686,7.23803709 9.62939452,7.21926877 C9.61932374,7.20111084 9.60757444,7.18402099 9.59429928,7.16799923 C9.58224487,7.15029904 9.56851194,7.13412474 9.552948,7.11932373 C9.53753663,7.10665892 9.52090452,7.09551998 9.50335694,7.08605955 C9.48413085,7.07278439 9.46353147,7.06164548 9.44201659,7.05264279 C9.43530272,7.05035396 9.43072507,7.04531857 9.42401124,7.04364013 C9.02041624,6.83535763 8.73950194,6.44824216 8.66671752,5.99993895 C8.66671752,5.73672481 8.72332764,5.54568477 8.81838987,5.48861692 C8.84448241,5.47518919 8.87347412,5.46801755 8.90307616,5.46771239 C8.93176268,5.7724304 9.05841061,6.05975341 9.26394651,6.28665157 C9.33474729,6.38613888 9.4543762,6.43893431 9.575531,6.42428587 C9.69683835,6.40963743 9.80029296,6.32983396 9.8453064,6.21630856 C9.89031983,6.10278317 9.86987304,5.97384642 9.79159546,5.88000485 C9.69393921,5.76358028 9.61611936,5.63159177 9.5616455,5.48968505 C9.6828003,5.38409419 9.83935546,5.32824704 10.0000305,5.33328243 C10.9385986,5.33328243 11.9209595,4.69226071 12.4666138,4.26959223 C12.6872559,4.92358395 13.3102722,5.35586544 13.9999695,5.33328243 C14.1466065,5.32946774 14.2898865,5.37661739 14.4057007,5.46664426 C14.3519898,5.58230587 14.2842407,5.69079587 14.2036743,5.78967282 C14.0944214,5.93798825 14.1260071,6.14672849 14.2743225,6.25598142 C14.4226379,6.36523435 14.6313782,6.33364864 14.7406311,6.18533321 C14.9147339,5.97979731 15.031311,5.731842 15.0786133,5.46664426 C15.1130981,5.46435544 15.147583,5.47122188 15.178711,5.48632809 C15.2752991,5.54339598 15.3329773,5.73870848 15.3329773,6.00863645 C15.2611084,6.4538879 14.9824829,6.83886716 14.5819397,7.04638669 C14.572937,7.04867552 14.5663758,7.05493162 14.5576782,7.05798337 C14.5489807,7.06103513 14.5396729,7.06698607 14.530365,7.07125853 C14.4977112,7.08575435 14.4674988,7.10543822 14.4409485,7.12939451 L14.4383545,7.13259884 C14.4099731,7.15945431 14.3867798,7.19119259 14.3696899,7.22628783 C14.3646545,7.23803709 14.3602295,7.25009154 14.35672,7.26229857 C14.3469543,7.28869627 14.3406983,7.31616209 14.3376465,7.3439331 C14.3376465,7.35095213 14.3330688,7.35705564 14.3330688,7.36407466 C14.3323059,8.65267944 13.2872315,9.69683835 11.9984741,9.69622804 C10.7098694,9.69546507 9.66571046,8.65039061 9.66632077,7.36163326 C9.66540526,7.35583494 9.66418456,7.35003662 9.66265866,7.34439084 Z M6.33334349,14.9766846 L6.33334349,13.190033 C6.33471677,12.4081726 6.93225095,11.7566223 7.71105955,11.6876526 L8.19567869,11.5970154 L10.3956909,13.6123963 C10.4753418,13.6853333 10.5853576,13.7153931 10.6909485,13.6926575 C10.704834,13.6871643 10.7181091,13.6806031 10.7309265,13.6729736 C10.7971496,13.855011 10.9149475,14.013855 11.0699768,14.1299744 L10.6186218,15.3332825 L6.68994138,15.3332825 C6.59503169,15.3343506 6.50378415,15.2971192 6.43664548,15.2299805 C6.36965939,15.1628418 6.33227536,15.0715942 6.33334349,14.9766846 Z M17.6666565,14.9766846 C17.6677246,15.0715942 17.6303406,15.1628418 17.5633545,15.2299805 C17.4962158,15.2971192 17.4049683,15.3343506 17.3100586,15.3332825 L13.3813782,15.3332825 L12.9309387,14.1299744 C13.085968,14.013855 13.2037659,13.855011 13.269989,13.6729736 C13.2828064,13.6806031 13.2962341,13.6871643 13.309967,13.6926575 C13.4157105,13.7153931 13.5257263,13.6853333 13.6053772,13.6123963 L15.8053894,11.5970154 L16.3170166,11.6916199 C17.0851441,11.7698975 17.6687928,12.4179382 17.6666565,13.190033 L17.6666565,14.9766846 Z M21.3333436,20.999939 C21.3333436,21.1841126 21.1841126,21.3333436 20.999939,21.3333436 L17.6666565,21.3333436 C17.4826355,21.3333436 17.3334046,21.1841126 17.3334046,20.999939 L17.3334046,17.6666565 C17.3334046,17.4826355 17.4826355,17.3334046 17.6666565,17.3334046 L20.999939,17.3334046 C21.1841126,17.3334046 21.3333436,17.4826355 21.3333436,17.6666565 L21.3333436,20.999939 Z" id="path-1"></path>
    </defs>
    <g id="005-hierarchy" stroke="none" stroke-width="1" fill="none" fill-rule="evenodd">
        <mask id="mask-2" fill="white">
            <use xlink:href="#path-1"></use>
        </mask>
        <g fill-rule="nonzero"></g>
        <g id="color/GreenVeg" mask="url(#mask-2)" fill="#007944">
            <rect id="Rectangle" x="0" y="0" width="24" height="24"></rect>
        </g>
    </g>
</svg>