<?xml version="1.0" encoding="UTF-8"?>
<svg width="24px" height="24px" viewBox="0 0 24 24" version="1.1" xmlns="http://www.w3.org/2000/svg" xmlns:xlink="http://www.w3.org/1999/xlink">
    <!-- Generator: Sketch 52 (66869) - http://www.bohemiancoding.com/sketch -->
    <title>002-manager</title>
    <desc>Created with Sketch.</desc>
    <defs>
        <path d="M3.33071387,21.9805069 L20.6302998,21.9805069 C21.3652535,21.9805069 21.9610137,21.3847466 21.9610137,20.6497929 L21.9610137,18.0614644 C21.9646687,16.5251584 20.802388,15.2366289 19.274001,15.0823587 L17.3776803,14.8854471 L17.3723502,14.8854471 L17.0645712,14.8520955 C15.8759442,14.7323953 14.9719481,13.7303241 14.9746893,12.5356055 L14.9746893,12.1643214 C15.671875,11.5903387 16.1307261,10.7775646 16.2621528,9.88407648 C16.9428911,9.52223437 17.3167642,8.40396564 17.3167642,7.67510353 C17.3784418,7.04492567 16.9323831,6.4781006 16.3054033,6.38961985 L16.3054033,5.01367564 C16.3034235,3.3608674 14.964029,2.0214729 13.3112207,2.01949313 L10.6497929,2.01949313 C8.99698462,2.0214729 7.65759015,3.3608674 7.65561035,5.01367564 L7.65561035,6.38961985 C7.02863058,6.4781006 6.58257186,7.04492567 6.64424949,7.67510353 C6.64424949,8.40396564 7.01827483,9.52223437 7.69886084,9.88407648 C7.8302875,10.7775646 8.28913862,11.5903387 8.98632431,12.1643214 L8.98632431,12.5356055 C8.98937012,13.7307809 8.08506942,14.733309 6.89583331,14.8527047 L6.58835888,14.8860563 L6.58333331,14.8860563 L4.68716491,15.0829679 C3.15877797,15.2372381 1.99664956,16.525463 1.99999995,18.0614644 L1.99999995,20.6497929 C1.99999995,21.3847466 2.59576019,21.9805069 3.33071387,21.9805069 Z M8.54483429,14.8610807 L10.5642056,16.1232639 L9.86366958,17.7587111 L7.34493783,15.448008 C7.78414349,15.3456689 8.19456626,15.1451024 8.54483429,14.8610807 Z M10.9823952,17.6556104 C10.9823952,17.4719481 11.1313353,17.3230081 11.3151499,17.3230081 L12.6458638,17.3230081 C12.8296784,17.3230081 12.9786184,17.4719481 12.9786184,17.6556104 L12.9786184,18.3209674 C12.9786184,18.5047819 12.8296784,18.653722 12.6458638,18.653722 L11.3151499,18.653722 C11.1313353,18.653722 10.9823952,18.5047819 10.9823952,18.3209674 L10.9823952,17.6556104 Z M15.4161794,14.8610807 C15.7664474,15.1451024 16.1768702,15.3456689 16.6160758,15.448008 L14.0973441,17.7587111 L13.396808,16.1232639 L15.4161794,14.8610807 Z M11.5457176,19.319079 L12.4152961,19.319079 L13.1638036,21.3151499 L10.7972101,21.3151499 L11.5457176,19.319079 Z M21.2956567,18.0614644 L21.2956567,20.6497929 C21.2956567,21.0172698 20.9977766,21.3151499 20.6302998,21.3151499 L13.8745431,21.3151499 L13.0859832,19.2123234 C13.407316,19.0533322 13.6182383,18.7339791 13.6383407,18.3762488 L13.67154,18.4520895 C13.714029,18.5512305 13.8019006,18.6235685 13.9074379,18.6462598 C14.0128229,18.6689511 14.1226243,18.6391021 14.2021199,18.566155 L17.4743848,15.564358 L19.2044043,15.7440607 C20.3937927,15.8636087 21.2983979,16.8661367 21.2956567,18.0614644 Z M10.6497929,2.68485009 L13.3112207,2.68485009 C14.5968567,2.68637301 15.6385234,3.72803969 15.6400463,5.01367564 L15.6400463,6.04498656 C15.5395346,6.02290445 15.4368909,6.01163498 15.3339425,6.01163498 C15.3139925,6.01163498 15.2940424,6.01163498 15.2743969,6.01163498 C13.7822551,6.01163498 13.309241,3.78271193 13.30452,3.75910694 C13.3002558,3.7466191 13.295078,3.73428358 13.2889864,3.72255723 C13.2822856,3.7003228 13.2733004,3.67884986 13.262031,3.65859524 C13.2506092,3.64032039 13.2373599,3.62326386 13.2224354,3.60773021 C13.2143641,3.59600386 13.2056835,3.58503894 13.1960892,3.57453091 C13.1901499,3.5695053 13.1828399,3.56813469 13.1764437,3.56341368 C13.1590826,3.55123045 13.1405032,3.54072241 13.12101,3.53219415 C13.1018214,3.5218384 13.0818714,3.51346241 13.0610076,3.50721852 C13.0419712,3.50325898 13.0224781,3.50097462 13.0028326,3.50021317 C12.9796844,3.49777653 12.9562317,3.49777653 12.9329313,3.50021317 C12.9259259,3.50021317 12.9193774,3.50021317 12.9123721,3.50021317 C12.8998843,3.50478187 12.887701,3.50995976 12.8758224,3.51589906 C12.853588,3.52244756 12.8324196,3.53128043 12.812165,3.5425499 C12.7932809,3.55427629 12.7756152,3.56798241 12.7596248,3.58351606 C12.7480507,3.59097828 12.7369335,3.59935427 12.7264254,3.60833937 C12.7061708,3.6319444 10.626797,6.01163498 8.98632431,6.01163498 C8.76139133,6.00828457 8.53721979,6.03798122 8.32096731,6.09981112 L8.32096731,5.01367564 C8.32249024,3.72803969 9.36430919,2.68637301 10.6497929,2.68485009 Z M8.33299827,9.62000486 C8.33299827,9.61695905 8.3307139,9.61467469 8.33025706,9.61162888 C8.31913986,9.56959671 8.30573831,9.52817371 8.29005238,9.48751219 C8.28076263,9.47411063 8.27040692,9.46147051 8.25913741,9.44959184 C8.24451753,9.42796661 8.22715639,9.40816884 8.20751094,9.39080775 C8.19578458,9.3834978 8.18360135,9.3769493 8.17096123,9.37116225 C8.14659476,9.35471492 8.12009624,9.3417702 8.0920748,9.33248049 C8.08979043,9.33248049 8.08781066,9.32989157 8.0855263,9.3292824 C7.71546049,9.23303484 7.30960645,8.36741593 7.30960645,7.67510353 C7.2867629,7.48930918 7.3485928,7.30305799 7.4780397,7.16782407 C7.47240497,7.50849779 7.54489518,7.84612571 7.68987569,8.15451386 C7.77058965,8.31990131 7.97009012,8.38843199 8.13547756,8.30771807 C8.30086501,8.22700411 8.36954797,8.02750364 8.28868177,7.8621162 C8.21482088,7.70906431 8.04181893,7.21107452 8.21147051,6.94060668 C8.34700899,6.72267908 8.70793737,6.67714422 8.98632431,6.67714422 C10.4588207,6.67714422 12.0802571,5.22962351 12.8211501,4.48142055 C13.108979,5.30668246 13.8159113,6.70196758 15.3133833,6.67866711 C15.4131335,6.67546902 15.5881153,6.68612937 15.6370005,6.76958454 C15.736903,6.94395709 15.5704496,7.47377557 15.353588,7.84049097 C15.2625183,7.99841616 15.3155154,8.20035328 15.4725268,8.29309819 C15.6296905,8.38584306 15.8320846,8.33482575 15.9265047,8.17888033 C16.1281372,7.84186158 16.2626097,7.46905456 16.3223075,7.08101849 C16.5598806,7.16614886 16.6514072,7.34448099 16.6514072,7.67738789 C16.6514072,8.36970025 16.2455532,9.23547149 15.8756396,9.33156677 C15.8735076,9.33156677 15.8719847,9.3338511 15.869548,9.33461254 C15.8366533,9.34451145 15.805586,9.35958821 15.7774123,9.37938595 C15.7696455,9.3831932 15.7621833,9.38730506 15.7548733,9.39172147 C15.731116,9.41197613 15.7102522,9.43558112 15.6931957,9.46162279 C15.6854289,9.47030334 15.6781189,9.47944077 15.6712659,9.48888279 C15.6621284,9.50883281 15.6546662,9.52954432 15.649336,9.55086502 C15.6409601,9.57111964 15.6347162,9.59228802 15.6307566,9.61406552 C15.6307566,9.61695905 15.6283199,9.6193957 15.6280154,9.62228923 C15.552327,10.4550134 15.1304825,11.2175317 14.4652778,11.724202 C14.4435002,11.7362329 14.4230933,11.7508528 14.4045139,11.7674525 C13.8925134,12.1366045 13.2769554,12.3345821 12.6458638,12.3327546 L11.3151499,12.3327546 C10.6837536,12.3338207 10.0681957,12.1352339 9.55665203,11.7651681 C9.5379203,11.7484162 9.5175134,11.7339486 9.49573585,11.7219177 C8.83053117,11.2152473 8.40868661,10.452729 8.33299827,9.62000486 Z M11.3151499,12.9981116 L12.6458638,12.9981116 C13.2248721,12.9991776 13.7959613,12.8631823 14.3122259,12.6012427 C14.3245614,13.2445176 14.5444688,13.8664717 14.9390534,14.374665 L12.8022661,15.7100999 C12.7929764,15.7160392 12.7879508,15.7266996 12.7789657,15.7337049 C12.7536854,15.7525889 12.7311464,15.7749757 12.7124147,15.8002558 C12.7064754,15.808175 12.6967288,15.812896 12.6918555,15.8212719 L12.1914291,16.6576511 L11.7695846,16.6576511 L11.2676352,15.8208151 C11.2626097,15.8125914 11.2528631,15.8078704 11.2469237,15.7999513 C11.228192,15.7746711 11.2058053,15.7521321 11.1803728,15.7334004 C11.1713877,15.726395 11.1663621,15.7157347 11.1570724,15.7097953 L9.02028505,14.3743604 C9.41486962,13.8661672 9.63477703,13.2440607 9.64711258,12.6007858 C10.1638341,12.8631823 10.7355324,12.9993299 11.3151499,12.9981116 Z M2.66535691,18.0614644 C2.6626157,16.866289 3.56676409,15.8639133 4.7560002,15.7440607 L6.48586742,15.564358 L9.75813231,18.566155 C9.8376279,18.6391021 9.94758163,18.6689511 10.0529666,18.6462598 C10.1583516,18.6235685 10.2463755,18.5512305 10.2888645,18.4520895 L10.3220639,18.3762488 C10.3421662,18.7339791 10.5530885,19.0533322 10.874269,19.2123234 L10.0864705,21.3151499 L3.33071387,21.3151499 C2.96323703,21.3151499 2.66535691,21.0172698 2.66535691,20.6497929 L2.66535691,18.0614644 Z" id="path-1"></path>
    </defs>
    <g id="002-manager" stroke="none" stroke-width="1" fill="none" fill-rule="evenodd">
        <mask id="mask-2" fill="white">
            <use xlink:href="#path-1"></use>
        </mask>
        <g fill-rule="nonzero"></g>
        <g id="color/sourYellow" mask="url(#mask-2)" fill="#FFF46B">
            <rect id="Rectangle" x="0" y="0" width="24" height="24"></rect>
        </g>
    </g>
</svg>