<?xml version="1.0" encoding="UTF-8"?>
<svg width="24px" height="24px" viewBox="0 0 24 24" version="1.1" xmlns="http://www.w3.org/2000/svg" xmlns:xlink="http://www.w3.org/1999/xlink">
    <!-- Generator: Sketch 52 (66869) - http://www.bohemiancoding.com/sketch -->
    <title>064-meeting</title>
    <desc>Created with Sketch.</desc>
    <defs>
        <path d="M15.6619762,9.31542396 L15.6619762,9.31907893 L17.3254447,9.31907893 C17.8765839,9.31907893 18.3235563,9.76589909 18.3235563,10.3170382 L18.3235563,11.6477522 C18.3235563,12.1990436 17.8765839,12.6458638 17.3254447,12.6458638 L16.6600877,12.6458638 L16.6600877,13.3404605 C17.4172759,13.4895529 17.9906494,14.1122685 18.0766935,14.8792032 C18.087963,14.8828582 18.0989279,14.8871224 18.1098928,14.8918433 C18.3192922,14.9806287 18.4836136,15.1510417 18.5646321,15.3636392 C18.6780885,15.6782712 18.6625548,16.0250366 18.5213816,16.3283992 C18.4392971,16.6156189 18.2565485,16.8635478 18.0064876,17.0269554 C17.8890717,17.4663134 17.6536306,17.8651621 17.3254447,18.1800987 L17.3254447,18.221674 C17.3254447,18.539961 17.7425683,18.9668312 18.1893884,19.1125731 C18.1968507,19.1139437 18.2041606,19.1159235 18.2113182,19.1182079 C18.2617264,19.1346552 18.3135051,19.1457724 18.3660453,19.1515595 L19.3262366,19.2513097 C20.0834248,19.3309576 20.6569506,19.9719481 20.6522296,20.7334004 L20.6522296,21.2956567 C20.6494883,21.4886087 20.5649671,21.671205 20.4196821,21.7980629 C20.274397,21.9250731 20.0819018,21.9843141 19.8904727,21.9610137 L2.7838389,21.9610137 C2.5922575,21.9843141 2.39991465,21.9250731 2.25462958,21.7980629 C2.10934451,21.671205 2.02467098,21.4886087 2.02192977,21.2956567 L2.02192977,20.7334004 C2.01842709,19.9725573 2.59180065,19.3327851 3.34837961,19.2529849 L4.13617809,19.1532347 C4.19008889,19.1471431 4.24339057,19.1360258 4.29516932,19.1198831 C4.6889924,18.985106 4.96981599,18.6352948 5.01611228,18.221674 L5.01611228,18.0070968 C4.77320901,17.7227705 4.59655209,17.3878838 4.49878164,17.0269554 C4.25496464,16.8714669 4.07602335,16.6326755 3.99515711,16.3548977 C3.84545563,16.0455958 3.82581013,15.6892361 3.94063715,15.365162 C4.0190667,15.1571333 4.17775337,14.9893092 4.38106113,14.8994579 C4.39735622,14.893214 4.41258523,14.8868178 4.42766199,14.8814876 C4.51949314,14.0513524 5.18256574,13.4003107 6.01422391,13.3235563 L6.01422391,12.6458638 L5.34886695,12.6458638 C4.79757548,12.6458638 4.35075532,12.1990436 4.35075532,11.6477522 L4.35075532,10.3170382 C4.35075532,9.76589909 4.79757548,9.31907893 5.34886695,9.31907893 L7.01218321,9.31907893 C7.01248777,9.28968689 7.01659962,9.26044712 7.02451873,9.23227336 C7.09670442,8.55823585 7.62499998,8.02339179 8.29812376,7.94313472 L9.05165691,7.84323218 C9.10389254,7.83714056 9.15551897,7.82587109 9.20562256,7.81003288 C9.5855872,7.66520466 9.84981114,7.31661183 9.88666545,6.91167151 L9.88666545,6.74537034 C9.60157773,6.44368297 9.39644248,6.07544465 9.29014377,5.67415934 C9.05287523,5.51790932 8.87956872,5.28185915 8.80144369,5.00880234 C8.53828579,4.39537641 8.70885109,3.77326994 9.18003776,3.56920074 L9.22130845,3.55260109 C9.3072003,2.68880966 10.0218994,2.02375726 10.8896503,1.99999995 L11.4519067,1.99999995 C12.3196577,2.02375726 13.0343567,2.68880966 13.1202485,3.55260109 L13.1479654,3.563566 C13.6327059,3.77326994 13.8032712,4.39537641 13.5504691,4.98245611 C13.471278,5.26449802 13.2943165,5.50907646 13.0514133,5.6727887 C12.946942,6.06798243 12.7465278,6.43119514 12.4682931,6.7304459 L12.4682931,6.90938715 C12.4682931,7.25935062 12.9070419,7.67053483 13.2923368,7.80074314 C13.2999513,7.80226606 13.3075658,7.80470271 13.3148757,7.80698707 C13.3610197,7.82328216 13.408839,7.83439936 13.4572673,7.84018637 L14.3772539,7.94008891 C15.0499208,8.02080287 15.5776072,8.55549464 15.6496406,9.22922759 C15.6571029,9.25633527 15.6612147,9.28420443 15.6619762,9.31237815 L15.6619762,9.31542396 Z M11.1707785,7.32300801 C10.9467593,7.32300801 10.7250244,7.27777775 10.5191277,7.18990617 C10.4664352,7.42671779 10.3631823,7.64936645 10.2163743,7.84262302 C10.8725938,8.01197 11.5604897,8.01760474 12.2194505,7.85891811 C12.0391386,7.66840275 11.9086257,7.43646438 11.8391813,7.18350996 C11.6284113,7.27579799 11.4008894,7.32331261 11.1707785,7.32300801 Z M9.58254143,5.07535326 C9.74000974,5.08205408 9.87204556,5.19672878 9.90052389,5.35176043 C10.0063657,5.99381697 10.5124269,6.65749876 11.1707785,6.65749876 C11.8291301,6.65749876 12.3351913,5.99381697 12.4410331,5.35176043 C12.4667702,5.19718562 12.5971308,5.0815972 12.7536854,5.07428726 C12.8296784,4.97575533 12.8887671,4.86534476 12.9283626,4.74731965 C13.0233918,4.57980016 13.0247624,4.37481719 12.9320175,4.20607942 C12.8292215,4.25176651 12.7101304,4.24232452 12.6157103,4.18095146 C12.5212902,4.11973072 12.4643336,4.01480261 12.4643336,3.90225996 L12.4643336,3.73001945 C12.4705775,3.15953945 12.0219298,2.68759134 11.4519067,2.66535691 L10.8896503,2.66535691 C10.3191703,2.68698218 9.86960892,3.15908257 9.8760051,3.73001945 L9.8760051,3.90225996 C9.87570054,4.01434573 9.81904849,4.11881696 9.72523757,4.18003774 C9.63127437,4.24125848 9.51294467,4.25115739 9.4101486,4.20638398 C9.31786061,4.36491832 9.3148148,4.56030698 9.40222954,4.72173486 C9.44563231,4.84737447 9.50639617,4.96631334 9.58254143,5.07535326 Z M4.7832602,16.4241898 C4.94194687,16.4318043 5.07550558,16.5457176 5.10794344,16.7013585 C5.21881088,17.3533139 5.74299459,18.0284174 6.42875849,18.0284174 C6.67607818,18.0249147 6.91532649,17.9397844 7.10934454,17.7864279 C7.11299951,17.7827729 7.11802508,17.78125 7.12168005,17.7774428 C7.45397779,17.5063658 7.67693101,17.1241168 7.74942127,16.7013585 C7.77561522,16.5470882 7.90567129,16.4318043 8.06192127,16.4244944 C8.14735624,16.3262671 8.21223195,16.2118969 8.25274119,16.0880848 C8.3293433,15.9408199 8.34579066,15.7694932 8.29842836,15.6103497 C8.28776801,15.5814145 8.27086376,15.5550682 8.24908622,15.5332907 C8.1462902,15.5823282 8.02537156,15.5751706 7.92897171,15.5144067 C7.83241955,15.4536428 7.77378774,15.347801 7.77348318,15.2338877 L7.77348318,15.0595151 C7.77348318,14.4724355 7.3057992,13.9921114 6.71887179,13.9765777 L6.13864519,13.9765777 C5.55217467,13.993482 5.08586133,14.4742629 5.08662277,15.0608857 L5.08662277,15.235106 C5.08631817,15.3491716 5.02768636,15.4550134 4.93113423,15.5157773 C4.83473439,15.5765412 4.71381575,15.5835466 4.61086741,15.534509 C4.58908987,15.5562866 4.57218562,15.5826328 4.56137302,15.6114157 C4.51446756,15.7608127 4.5263462,15.9225451 4.59457232,16.0635661 C4.63949801,16.1924038 4.70300312,16.3137793 4.7832602,16.4241898 Z M7.73586743,19.4243117 L7.73449682,19.4243117 C7.43357089,19.2120188 7.20406918,18.9133772 7.0764498,18.5679825 C6.61333451,18.7565181 6.09113057,18.7339791 5.6458333,18.5064571 C5.55857088,18.8596187 5.36211619,19.1763828 5.08464301,19.4116716 C5.5163864,19.5606117 5.97005966,19.6350817 6.42677872,19.6321881 C6.87161912,19.6364523 7.31417518,19.5660941 7.73586743,19.4243117 Z M6.34682625,21.2956567 L10.2425682,21.2956567 C10.2751584,21.2964182 10.3075962,21.2927632 10.3391204,21.2846918 L10.3391204,20.7334004 C10.3432322,20.3126219 10.0270772,19.9573283 9.60843079,19.9130117 L8.65296053,19.8132615 C8.61382185,19.8099111 8.56615495,19.7959004 8.5225999,19.7872198 C7.88039105,20.1371833 7.15792516,20.3130788 6.42677872,20.2975451 C5.69685061,20.3124696 4.97560304,20.1384016 4.33278507,19.79255 C4.29181891,19.8015351 4.25039591,19.8080836 4.20866834,19.8125 L3.42391567,19.9124026 C3.00328943,19.9548916 2.68424093,20.3106421 2.68728674,20.7334004 L2.68728674,21.2846918 C2.71896315,21.2924586 2.75140105,21.2962659 2.7838389,21.2956567 L6.34682625,21.2956567 Z M19.9868726,20.7334004 C19.9911367,20.3126219 19.6748295,19.9573283 19.2563353,19.9130117 L18.3008651,19.8132615 C18.2615741,19.8099111 18.2140595,19.7959004 18.1705044,19.7872198 C17.5282956,20.1371833 16.8056774,20.3130788 16.074531,20.2975451 C15.3447551,20.3124696 14.6235076,20.1384016 13.9806896,19.79255 C13.9397234,19.8015351 13.8983004,19.8080836 13.8565729,19.8125 L13.0716679,19.9124026 C12.6510417,19.9548916 12.3319932,20.3106421 12.3351913,20.7334004 L12.3351913,21.2846918 C12.3667154,21.2924586 12.3991533,21.2962659 12.4315911,21.2956567 L19.8904727,21.2956567 C19.9229106,21.2964182 19.9553485,21.2927632 19.9868726,21.2846918 L19.9868726,20.7334004 Z M17.3822491,19.4243117 C17.0813231,19.2120188 16.8518214,18.9133772 16.724202,18.5679825 C16.2610868,18.7565181 15.7388828,18.7339791 15.2937378,18.5064571 C15.2063231,18.8596187 15.0100207,19.1763828 14.7325475,19.4116716 C15.1641387,19.5606117 15.6179642,19.6350817 16.074531,19.6321881 C16.5190668,19.6363 16.9610137,19.5659418 17.3822491,19.4243117 Z M17.4212354,15.0595151 C17.4212354,14.4724355 16.9535514,13.9921114 16.366624,13.9765777 L15.7863974,13.9765777 C15.1999269,13.9928728 14.7330044,14.4730446 14.7331567,15.0598197 L14.7331567,15.2341923 C14.7328521,15.3481055 14.6742203,15.4540997 14.5776682,15.5147113 C14.4812683,15.5754752 14.3603497,15.5826328 14.2574013,15.5335953 C14.2356238,15.5553728 14.2187195,15.5815668 14.2079069,15.6103497 C14.1610015,15.7598989 14.1728801,15.9216314 14.2411062,16.0625 C14.2860319,16.1913377 14.349537,16.3128655 14.4297941,16.4231238 C14.5892422,16.4302815 14.7235624,16.5448039 14.755848,16.7013585 C14.8665631,17.3533139 15.3908991,18.0284174 16.0765107,18.0284174 C16.3238304,18.0249147 16.5630787,17.9397844 16.7572491,17.7864279 C16.760904,17.7827729 16.7659296,17.78125 16.7695846,17.7774428 C17.1018823,17.5063658 17.3248355,17.1241168 17.3973258,16.7013585 C17.4233675,16.5470882 17.5534235,16.4318043 17.7096735,16.4244944 C17.7951085,16.3262671 17.8601365,16.2118969 17.9006457,16.0880848 C17.9772478,15.9408199 17.9935429,15.7694932 17.9461806,15.6103497 C17.9355203,15.5814145 17.9187683,15.5550682 17.8969908,15.5332907 C17.7940424,15.5823282 17.6732761,15.5751706 17.576724,15.5144067 C17.4801718,15.4536428 17.42154,15.347801 17.4212354,15.2338877 L17.4212354,15.0595151 Z M15.9947308,13.3112207 L15.9947308,12.6458638 L6.67958087,12.6458638 L6.67958087,13.3112207 L6.71887179,13.3112207 C7.60185183,13.3299525 8.33375975,14.0010965 8.42878899,14.8792032 C8.44005846,14.8828582 8.45102337,14.8871224 8.46214057,14.8918433 C8.67153994,14.9806287 8.83570907,15.1510417 8.91687987,15.3636392 C9.03033624,15.6782712 9.01480264,16.0250366 8.87362938,16.3283992 C8.79154482,16.6156189 8.608644,16.8635478 8.35858306,17.0269554 C8.24131944,17.4663134 8.0057261,17.8651621 7.67754017,18.1800987 L7.67754017,18.221674 C7.67754017,18.539961 8.094816,18.9668312 8.5416362,19.1125731 C8.54894614,19.1139437 8.55640836,19.1159235 8.56356603,19.1182079 C8.61382185,19.1346552 8.66560061,19.1457724 8.71829312,19.1515595 L9.67833211,19.2513097 C10.4356725,19.3309576 11.0091984,19.9719481 11.0044773,20.7334004 L11.0044773,21.2956567 L11.6698343,21.2956567 L11.6698343,20.7334004 C11.6663316,19.9725573 12.2395529,19.3327851 12.9962841,19.2529849 L13.7840826,19.1532347 C13.8379934,19.1471431 13.8911428,19.1360258 13.9430738,19.1198831 C14.3368969,18.985106 14.6177205,18.6352948 14.6640168,18.221674 L14.6640168,18.0070968 C14.4211135,17.7227705 14.2444566,17.3878838 14.1466862,17.0269554 C13.9028692,16.8714669 13.7237756,16.6326755 13.6429094,16.3548977 C13.4933602,16.0455958 13.4737147,15.6892361 13.5883894,15.365162 C13.666819,15.1571333 13.8255056,14.9893092 14.0288133,14.8994579 C14.0451084,14.893214 14.0604898,14.8868178 14.0754142,14.8814876 C14.169682,14.0023148 14.9023514,13.3298002 15.7863974,13.3112207 L15.9947308,13.3112207 Z M17.3254447,9.9844359 L5.34886695,9.9844359 C5.16505236,9.9844359 5.01611228,10.133376 5.01611228,10.3170382 L5.01611228,11.6477522 C5.01611228,11.8315668 5.16505236,11.9805068 5.34886695,11.9805068 L17.3254447,11.9805068 C17.509107,11.9805068 17.658047,11.8315668 17.658047,11.6477522 L17.658047,10.3170382 C17.658047,10.133376 17.509107,9.9844359 17.3254447,9.9844359 Z M7.75749269,9.31907893 L14.916819,9.32029726 C14.9411854,9.32060186 14.9657042,9.31831749 14.9896138,9.31374876 C14.9515412,8.94825168 14.6698039,8.65539718 14.305982,8.60316154 L13.3901072,8.50325901 C13.3033017,8.49412158 13.2175622,8.47630361 13.1342593,8.45010961 C13.1260356,8.44812985 13.1176596,8.4456932 13.1095882,8.44310427 C13.0259807,8.41584427 12.9445053,8.38249269 12.8657712,8.34320174 C12.3548367,8.55366712 11.8065911,8.65935671 11.2539291,8.65372197 C10.6983735,8.65676778 10.1476913,8.55138279 9.6324927,8.34365862 C9.47593808,8.42863667 9.30430677,8.48209063 9.12704069,8.50097464 L8.37624875,8.6007249 C8.00938107,8.65052388 7.72383647,8.94429215 7.68454555,9.31237815 C7.70860742,9.31694689 7.7329739,9.31923121 7.75749269,9.31907893 Z M20.3196273,1.99999995 C20.8707664,1.99999995 21.3175866,2.44682015 21.3175866,2.99811153 L21.3175866,6.32489642 C21.3175866,6.87603553 20.8707664,7.32300801 20.3196273,7.32300801 L18.9583029,7.32300801 C18.826724,7.32331261 18.6981908,7.36260352 18.5889986,7.43600754 L17.3616899,8.25441639 C17.157316,8.39056408 16.894615,8.40320419 16.6782103,8.28700657 C16.4618056,8.17096123 16.3268762,7.94511452 16.3273331,7.69947 L16.3273331,7.65561035 C16.3273331,7.47194809 16.178393,7.32300801 15.9947308,7.32300801 L15.6619762,7.32300801 C15.110837,7.32300801 14.6640168,6.87603553 14.6640168,6.32489642 L14.6640168,2.99811153 C14.6640168,2.44682015 15.110837,1.99999995 15.6619762,1.99999995 L20.3196273,1.99999995 Z M20.6522296,6.32489642 L20.6522296,2.99811153 C20.6522296,2.81429699 20.5032895,2.66535691 20.3196273,2.66535691 L15.6619762,2.66535691 C15.4783139,2.66535691 15.3293738,2.81429699 15.3293738,2.99811153 L15.3293738,6.32489642 C15.3293738,6.50855869 15.4783139,6.65749876 15.6619762,6.65749876 L15.9947308,6.65749876 C16.5458699,6.65749876 16.9926901,7.10447124 16.9926901,7.65561035 L16.9926901,7.69947 L18.2199988,6.88106114 C18.4385356,6.73516687 18.6954496,6.65734648 18.9583029,6.65749876 L20.3196273,6.65749876 C20.5032895,6.65749876 20.6522296,6.50855869 20.6522296,6.32489642 Z M19.6542703,3.33071387 C19.8379326,3.33071387 19.9868726,3.47965395 19.9868726,3.66346854 C19.9868726,3.8471308 19.8379326,3.99607088 19.6542703,3.99607088 L16.3273331,3.99607088 C16.1436708,3.99607088 15.9947308,3.8471308 15.9947308,3.66346854 C15.9947308,3.47965395 16.1436708,3.33071387 16.3273331,3.33071387 L19.6542703,3.33071387 Z M19.6542703,4.66142784 C19.8379326,4.66142784 19.9868726,4.81036792 19.9868726,4.99418246 C19.9868726,5.17784476 19.8379326,5.3267848 19.6542703,5.3267848 L16.3273331,5.3267848 C16.1436708,5.3267848 15.9947308,5.17784476 15.9947308,4.99418246 C15.9947308,4.81036792 16.1436708,4.66142784 16.3273331,4.66142784 L19.6542703,4.66142784 Z" id="path-1"></path>
    </defs>
    <g id="064-meeting" stroke="none" stroke-width="1" fill="none" fill-rule="evenodd">
        <mask id="mask-2" fill="white">
            <use xlink:href="#path-1"></use>
        </mask>
        <g id="Combined-Shape" fill-rule="nonzero"></g>
        <g id="color/sourYellow" mask="url(#mask-2)" fill="#FFF46B">
            <rect id="Rectangle" x="0" y="0" width="24" height="24"></rect>
        </g>
    </g>
</svg>