<?xml version="1.0" encoding="UTF-8"?>
<svg width="24px" height="24px" viewBox="0 0 24 24" version="1.1" xmlns="http://www.w3.org/2000/svg" xmlns:xlink="http://www.w3.org/1999/xlink">
    <!-- Generator: Sketch 52 (66869) - http://www.bohemiancoding.com/sketch -->
    <title>031-hierarchy-1</title>
    <desc>Created with Sketch.</desc>
    <defs>
        <path d="M22,3.6667175 C22,4.21893309 21.5523072,4.66662594 20.999939,4.66662594 L20.999939,14.666626 C21.5523072,14.666626 22,15.1143188 22,15.666687 C22,16.2189026 21.5523072,16.6665955 20.999939,16.6665955 L16.428711,16.6665955 L17.5757141,21.1859436 C17.620575,21.3864441 17.5714417,21.5962525 17.4423523,21.756012 C17.315857,21.9107361 17.1264954,22.0003052 16.9266053,22.0000001 L16.2733765,22.0000001 C15.9555359,22.0000001 15.6819458,21.7756958 15.6196899,21.4639588 L14.407074,16.6665955 L13.000061,16.6665955 L13.000061,20.3332825 C13.000061,20.7014771 12.7015991,20.999939 12.3334045,20.999939 L11.6665955,20.999939 C11.2985535,20.999939 10.999939,20.7014771 10.999939,20.3332825 L10.999939,16.6665955 L9.59307858,16.6665955 L8.37664795,21.4802857 C8.30920408,21.7848511 8.03866576,22.0012208 7.72662349,22.0000001 L7.07339474,22.0000001 C6.87350462,22.0000001 6.68429564,21.9104309 6.55764767,21.7558594 C6.43099974,21.6014405 6.38034056,21.3981934 6.41970821,21.2022706 L7.57128904,16.6665955 L3.00006097,16.6665955 C2.44769284,16.6665955 1.99999995,16.2189026 1.99999995,15.666687 C1.99999995,15.1143188 2.44769284,14.666626 3.00006097,14.666626 L3.00006097,4.66662594 C2.44769284,4.66662594 1.99999995,4.21893309 1.99999995,3.6667175 C1.99999995,3.11434933 2.44769284,2.66665644 3.00006097,2.66665644 L7.33340451,2.66665644 L7.33340451,2.33340448 C7.33340451,2.14923089 7.48263549,1.99999995 7.66665646,1.99999995 C7.85083006,1.99999995 8.000061,2.14923089 8.000061,2.33340448 L8.000061,2.66665644 L15.999939,2.66665644 L15.999939,2.33340448 C15.999939,2.14923089 16.1491699,1.99999995 16.3333435,1.99999995 C16.5173645,1.99999995 16.6665955,2.14923089 16.6665955,2.33340448 L16.6665955,2.66665644 L20.999939,2.66665644 C21.5523072,2.66665644 22,3.11434933 22,3.6667175 Z M2.66665644,3.6667175 C2.66665644,3.85073847 2.81588742,3.99996945 3.00006097,3.99996945 L20.999939,3.99996945 C21.1841126,3.99996945 21.3333436,3.85073847 21.3333436,3.6667175 C21.3333436,3.4825439 21.1841126,3.33331293 20.999939,3.33331293 L3.00006097,3.33331293 C2.81588742,3.33331293 2.66665644,3.4825439 2.66665644,3.6667175 Z M7.72662349,21.6665955 L7.72662349,21.3333436 L7.72662349,21.6665955 Z M7.72662349,21.3333436 L8.90536498,16.6665955 L8.25930783,16.6665955 L7.0692749,21.3499756 L7.72662349,21.3333436 Z M12.3334045,20.3332825 L12.3334045,16.6665955 L11.6665955,16.6665955 L11.6665955,20.3332825 L12.3334045,20.3332825 Z M16.9266053,21.3333436 L15.7406922,16.6665955 L15.094635,16.6665955 L16.2733765,21.3333436 L16.9266053,21.3333436 Z M21.3333436,15.666687 C21.3333436,15.4825135 21.1841126,15.3332825 20.999939,15.3332825 L3.00006097,15.3332825 C2.81588742,15.3332825 2.66665644,15.4825135 2.66665644,15.666687 C2.66665644,15.850708 2.81588742,15.999939 3.00006097,15.999939 L20.999939,15.999939 C21.1841126,15.999939 21.3333436,15.850708 21.3333436,15.666687 Z M20.3332825,14.666626 L20.3332825,4.66662594 L3.6667175,4.66662594 L3.6667175,14.666626 L20.3332825,14.666626 Z M6.08630368,13.2023926 L6.25994872,12.3334045 C6.03472895,12.0872803 5.94836423,11.7444153 6.03015134,11.4209289 C6.11209103,11.0975952 6.35134884,10.8371277 6.66659544,10.7280273 L6.66659544,10.0000305 C6.66659544,9.63183593 6.96520994,9.33337401 7.33340451,9.33337401 L11.6665955,9.33337401 L11.6665955,8.65863037 C11.4807434,8.64001463 11.3115234,8.54342651 11.2008972,8.39282225 C11.0904236,8.24237061 11.0487671,8.05194092 11.0863037,7.86898803 L11.2599487,6.99999998 C10.8967895,6.60052489 10.9164734,5.98483274 11.3041992,5.60916134 C11.6920777,5.23348997 12.3079223,5.23348997 12.6958008,5.60916134 C13.0835266,5.98483274 13.1032105,6.60052489 12.7400513,6.99999998 L12.9136963,7.86898803 C12.9512329,8.05194092 12.909729,8.24237061 12.7991028,8.39282225 C12.6884766,8.54342651 12.5192566,8.64001463 12.3334045,8.65863037 L12.3334045,9.33337401 L16.6665955,9.33337401 C17.0347901,9.33337401 17.3334046,9.63183593 17.3334046,10.0000305 L17.3334046,10.7280273 C17.6486512,10.8371277 17.887909,11.0975952 17.9698487,11.4209289 C18.0516358,11.7444153 17.965271,12.0872803 17.7400513,12.3334045 L17.9136963,13.2023926 C17.9529114,13.3981629 17.9022522,13.6014099 17.7756043,13.7558289 C17.6489563,13.9104004 17.4597473,13.9999695 17.2600098,13.9999695 L16.7399903,13.9999695 C16.5402527,13.9999695 16.3510437,13.9104004 16.2243958,13.7558289 C16.0977478,13.6014099 16.0470887,13.3981629 16.0863037,13.2023926 L16.2599488,12.3334045 C16.034729,12.0872803 15.9483643,11.7444153 16.0301514,11.4209289 C16.1120911,11.0975952 16.3513489,10.8371277 16.6665955,10.7280273 L16.6665955,10.0000305 L13.9999695,10.0000305 L13.9999695,10.7280273 C14.3153687,10.8371277 14.5544739,11.0975952 14.6364136,11.4209289 C14.7183533,11.7444153 14.6319885,12.0872803 14.4066162,12.3334045 L14.5802613,13.2023926 C14.6196289,13.3981629 14.5689697,13.6014099 14.4423218,13.7558289 C14.3156738,13.9104004 14.1264649,13.9999695 13.9267273,13.9999695 L13.4067078,13.9999695 C13.2069702,13.9999695 13.0176086,13.9104004 12.8909607,13.7558289 C12.7644653,13.6014099 12.7138062,13.3981629 12.7530213,13.2023926 L12.9266663,12.3334045 C12.7012939,12.0872803 12.6149292,11.7444153 12.6968689,11.4209289 C12.7788086,11.0975952 13.0180664,10.8371277 13.333313,10.7280273 L13.333313,10.0000305 L10.666687,10.0000305 L10.666687,10.7280273 C10.9819336,10.8371277 11.2211914,11.0975952 11.3031311,11.4209289 C11.3850708,11.7444153 11.2987061,12.0872803 11.0733337,12.3334045 L11.2469787,13.2023926 C11.2861938,13.3981629 11.2355347,13.6014099 11.1090393,13.7558289 C10.9823914,13.9104004 10.7931824,13.9999695 10.5932922,13.9999695 L10.0732727,13.9999695 C9.87353515,13.9999695 9.68432616,13.9104004 9.55767819,13.7558289 C9.43103026,13.6014099 9.38037108,13.3981629 9.41973874,13.2023926 L9.59338378,12.3334045 C9.36801147,12.0872803 9.28164671,11.7444153 9.36358639,11.4209289 C9.44552612,11.0975952 9.68463132,10.8371277 10.0000305,10.7280273 L10.0000305,10.0000305 L7.33340451,10.0000305 L7.33340451,10.7280273 C7.64865111,10.8371277 7.88790892,11.0975952 7.96984861,11.4209289 C8.05163572,11.7444153 7.965271,12.0872803 7.74005123,12.3334045 L7.91369627,13.2023926 C7.95291135,13.3981629 7.90225217,13.6014099 7.77560424,13.7558289 C7.64895627,13.9104004 7.45974728,13.9999695 7.26000974,13.9999695 L6.73999021,13.9999695 C6.54025267,13.9999695 6.35104368,13.9104004 6.22439571,13.7558289 C6.09774778,13.6014099 6.0470886,13.3981629 6.08630368,13.2023926 Z M10.3332825,11.3333435 C10.1492615,11.3333435 10.0000305,11.4825745 10.0000305,11.6665955 C10.0000305,11.8507691 10.1492615,12 10.3332825,12 C10.517456,12 10.666687,11.8507691 10.666687,11.6665955 C10.666687,11.4825745 10.517456,11.3333435 10.3332825,11.3333435 Z M10.0732727,13.333313 L10.5932922,13.333313 L10.4576416,12.6539917 C10.3757019,12.6709289 10.2910156,12.6709289 10.2090759,12.6539917 L10.0732727,13.333313 Z M13.6667175,11.3333435 C13.482544,11.3333435 13.333313,11.4825745 13.333313,11.6665955 C13.333313,11.8507691 13.482544,12 13.6667175,12 C13.8507385,12 13.9999695,11.8507691 13.9999695,11.6665955 C13.9999695,11.4825745 13.8507385,11.3333435 13.6667175,11.3333435 Z M13.4067078,13.333313 L13.9267273,13.333313 L13.7910766,12.6539917 C13.7089844,12.6709289 13.6242981,12.6709289 13.5423584,12.6539917 L13.4067078,13.333313 Z M17,11.3333435 C16.815979,11.3333435 16.6665955,11.4825745 16.6665955,11.6665955 C16.6665955,11.8507691 16.815979,12 17,12 C17.1841736,12 17.3334046,11.8507691 17.3334046,11.6665955 C17.3334046,11.4825745 17.1841736,11.3333435 17,11.3333435 Z M16.7399903,13.333313 L17.2600098,13.333313 L17.1243592,12.6539917 C17.0422669,12.6709289 16.9577332,12.6709289 16.8756409,12.6539917 L16.7399903,13.333313 Z M11.8756409,7.32073974 L11.7399902,8.000061 L12.2600098,8.000061 L12.1243591,7.32073974 C12.0422668,7.33752439 11.9577332,7.33752439 11.8756409,7.32073974 Z M12,5.99993895 C11.815979,5.99993895 11.6665955,6.14916989 11.6665955,6.33334349 C11.6665955,6.51736446 11.815979,6.66659544 12,6.66659544 C12.1841736,6.66659544 12.3334045,6.51736446 12.3334045,6.33334349 C12.3334045,6.14916989 12.1841736,5.99993895 12,5.99993895 Z M6.73999021,13.333313 L7.26000974,13.333313 L7.12435912,12.6539917 C7.08316037,12.6608582 7.04165646,12.6651306 6.99999998,12.6666565 C6.95834349,12.6651306 6.91683958,12.6608582 6.87564083,12.6539917 L6.73999021,13.333313 Z M6.99999998,11.3333435 C6.81597896,11.3333435 6.66659544,11.4825745 6.66659544,11.6665955 C6.66659544,11.8507691 6.81597896,12 6.99999998,12 C7.18417357,12 7.33340451,11.8507691 7.33340451,11.6665955 C7.33340451,11.4825745 7.18417357,11.3333435 6.99999998,11.3333435 Z" id="path-1"></path>
    </defs>
    <g id="031-hierarchy-1" stroke="none" stroke-width="1" fill="none" fill-rule="evenodd">
        <mask id="mask-2" fill="white">
            <use xlink:href="#path-1"></use>
        </mask>
        <g id="Combined-Shape" fill-rule="nonzero"></g>
        <g id="color/sourYellow" mask="url(#mask-2)" fill="#FFF46B">
            <rect id="Rectangle" x="0" y="0" width="24" height="24"></rect>
        </g>
    </g>
</svg>