<?xml version="1.0" encoding="UTF-8"?>
<svg width="24px" height="24px" viewBox="0 0 24 24" version="1.1" xmlns="http://www.w3.org/2000/svg" xmlns:xlink="http://www.w3.org/1999/xlink">
    <!-- Generator: Sketch 52 (66869) - http://www.bohemiancoding.com/sketch -->
    <title>030-file-1</title>
    <desc>Created with Sketch.</desc>
    <defs>
        <path d="M7.66665646,20.0000305 C7.85083006,20.0000305 8.000061,20.1492615 8.000061,20.3332825 C8.000061,20.5174561 7.85083006,20.6666871 7.66665646,20.6666871 L4.33337399,20.6666871 C4.14920039,20.6666871 3.99996945,20.5174561 3.99996945,20.3332825 C3.99996945,20.1492615 4.14920039,20.0000305 4.33337399,20.0000305 L7.66665646,20.0000305 Z M17.3334046,12.6666565 C19.9106141,12.6666565 22,14.7560425 22,17.3334046 C22,19.9106141 19.9106141,22 17.3334046,22 L3.00006097,22 C2.44769284,22 1.99999995,21.5523072 1.99999995,20.999939 L1.99999995,3.00006097 C1.99999995,2.44769284 2.44769284,1.99999995 3.00006097,1.99999995 L17,1.99999995 C17.9199524,2.00106807 18.6654969,2.74661249 18.6667176,3.6667175 L18.6667176,4.66662594 C18.6667176,5.03482051 18.3682557,5.33328243 18.000061,5.33328243 L16.6665955,5.33328243 L16.6665955,12.7200623 C16.8872376,12.6861877 17.1101685,12.668335 17.3334046,12.6666565 Z M17,2.66665644 L4.32467649,2.66665644 C4.54531856,2.95352167 4.66540524,3.30477902 4.66662594,3.6667175 L4.66662594,4.66662594 L18.000061,4.66662594 L18.000061,3.6667175 C18.000061,3.11434933 17.5522156,2.66665644 17,2.66665644 Z M3.00006097,21.3333436 L14.9420471,21.3333436 C14.6275635,21.145813 14.3361206,20.9219666 14.0736695,20.6666871 L8.99996948,20.6666871 C8.81594846,20.6666871 8.66671752,20.5174561 8.66671752,20.3332825 C8.66671752,20.1492615 8.81594846,20.0000305 8.99996948,20.0000305 L13.5089416,20.0000305 C13.3623047,19.7886963 13.2333679,19.5657654 13.123352,19.3333741 L4.33337399,19.3333741 C4.14920039,19.3333741 3.99996945,19.1841431 3.99996945,18.9999695 C3.99996945,18.8159485 4.14920039,18.6667176 4.33337399,18.6667176 L12.8630371,18.6667176 C12.766449,18.3409424 12.7061768,18.0055542 12.6832886,17.6666565 L4.55004879,17.6666565 C4.06237789,17.6660462 3.66717527,17.2709961 3.6667175,16.7833252 L3.6667175,15.3500672 C3.66564937,14.425232 4.36557004,13.6499329 5.28567501,13.5570068 L6.2889404,13.4317322 C6.87457271,13.3775635 7.32241818,12.8863831 7.3222656,12.2983093 L7.3222656,11.6650696 C7.07934568,11.3379211 6.90234372,10.9665222 6.80133052,10.5716248 C6.49005122,10.3901977 6.26254271,10.0934143 6.16793821,9.74566647 L6.15359493,9.71240233 C5.98406981,9.34893796 5.9649963,8.93344116 6.10034177,8.55593869 C6.19128415,8.31362912 6.37561032,8.11801146 6.61196896,8.0127258 C6.65103146,7.99700928 6.6870422,7.98327635 6.72030638,7.97259521 C6.80819701,6.87579341 7.71212767,6.02328489 8.81228635,5.99993895 L9.54959104,5.99993895 C10.6497498,6.02374263 11.5533752,6.87594603 11.6412659,7.97259521 C11.6702576,7.98098752 11.7000122,7.99273678 11.7332764,8.00601193 C11.9771118,8.1097717 12.1678467,8.30859373 12.2616882,8.55639647 C12.3970337,8.93374631 12.377655,9.34939573 12.2076721,9.71270749 L12.1947021,9.74307249 C12.0999451,10.0917358 11.8718262,10.3891296 11.5596313,10.5710144 C11.458313,10.9668274 11.2805481,11.3389893 11.0367127,11.6665955 L11.0367127,12.2966309 C11.079895,12.8853149 11.5378113,13.3589477 12.1246643,13.4219666 C12.136261,13.4233399 12.1473999,13.4253235 12.1579285,13.4276123 L13.3813782,13.554718 C13.6825867,13.5867615 13.9708252,13.6940308 14.2196961,13.8666077 C14.7314758,13.404419 15.3395386,13.0617066 15.999939,12.8633423 L15.999939,5.33328243 L4.66662594,5.33328243 C4.29843137,5.33328243 3.99996945,5.03482051 3.99996945,4.66662594 L3.99996945,3.6667175 C3.99996945,3.11434933 3.55227656,2.66665644 3.00006097,2.66665644 C2.81588742,2.66665644 2.66665644,2.81588742 2.66665644,3.00006097 L2.66665644,20.999939 C2.66665644,21.1841126 2.81588742,21.3333436 3.00006097,21.3333436 Z M12.6835938,17 C12.7507324,16.0293885 13.1210632,15.1044006 13.7424011,14.3556519 C13.6094971,14.281189 13.4630127,14.2340393 13.3116455,14.2169495 L12.1829529,14.1000672 C11.5007324,14.6646424 10.3976746,15.0000305 9.18002319,15.0000305 C7.96939084,15.0000305 6.87197872,14.6693726 6.19128415,14.1139527 L5.36105344,14.2166443 C4.77725215,14.2726441 4.3320007,14.7636719 4.33337399,15.3500672 L4.33337399,16.7833252 C4.33352656,16.9029541 4.43041988,16.9998474 4.55004879,17 L12.6835938,17 Z M11.1389465,8.63894651 C11.0405273,8.57836912 10.9807129,8.47094725 10.9807129,8.35528561 L10.9807129,8.13327025 C10.97995,7.33737181 10.3453369,6.68688962 9.54959104,6.66659544 L8.81228635,6.66659544 C8.01715084,6.68765255 7.38314818,7.33782959 7.38238521,8.13327025 L7.38238521,8.35528561 C7.38238521,8.47094725 7.32241818,8.57836912 7.223999,8.63909912 C7.12557982,8.69998166 7.00274654,8.70532225 6.89929197,8.65328979 L6.86038204,8.63330076 C6.7955322,8.67175291 6.7462463,8.73141479 6.72106931,8.80236815 C6.65270993,9.01477049 6.66888427,9.24533081 6.7663879,9.44598389 L6.78073118,9.47940061 C6.95269771,9.87506101 7.00671384,9.95593261 7.10070798,9.96035765 C7.25741576,9.96737671 7.38818357,10.0828857 7.41427611,10.2376098 C7.55999756,11.1040039 8.26205443,12 9.1809387,12 C10.0999756,12 10.8017273,11.1040039 10.9489746,10.2373047 C10.9753723,10.0828857 11.1056824,9.96752929 11.2623902,9.96035765 C11.3566894,9.95593261 11.4104004,9.87506101 11.5829773,9.4772644 L11.5967102,9.44628905 C11.6942139,9.24548338 11.7106934,9.01492307 11.642334,8.80236815 C11.617157,8.73141479 11.5680237,8.67144772 11.5033264,8.63299561 L11.4633484,8.65328979 C11.3598938,8.7047119 11.2373657,8.69921873 11.1389465,8.63894651 Z M7.98937986,12.3016663 C7.98861693,12.9608459 7.62667845,13.5667725 7.04669185,13.8800354 C7.71395873,14.1914673 8.44363401,14.3466492 9.18002319,14.333374 C9.93151854,14.3475647 10.6759949,14.184906 11.3530273,13.8583679 C10.7678528,13.5556336 10.3920288,12.9602356 10.3706665,12.3016663 C9.6512146,12.7876587 8.7086792,12.7876587 7.98937986,12.3016663 Z M17.3334046,21.3333436 C19.5415039,21.3309022 21.3309022,19.5415039 21.3333436,17.3334046 C21.3333436,15.1242371 19.5424195,13.333313 17.3334046,13.333313 C15.1242371,13.333313 13.333313,15.1242371 13.333313,17.3334046 C13.333313,19.5424195 15.1242371,21.3333436 17.3334046,21.3333436 Z M19.4102784,15.1199646 L19.4102784,15.1202698 C19.5282288,14.9788208 19.7384949,14.9594422 19.8799439,15.0773926 C20.0215454,15.1951904 20.0407715,15.4054566 19.9229737,15.5470581 L16.5896912,19.5469971 C16.5295715,19.6190186 16.4419861,19.6625061 16.3482971,19.666626 L16.3333435,19.666626 C16.2446899,19.6667786 16.1596985,19.6316834 16.0969849,19.5689698 L14.7636719,18.2356567 C14.6373291,18.1048889 14.6391602,17.8969117 14.7677918,17.7684326 C14.8962708,17.639801 15.1042481,17.63797 15.2350159,17.7643128 L16.3103028,18.8395996 L19.4102784,15.1199646 Z" id="path-1"></path>
    </defs>
    <g id="030-file-1" stroke="none" stroke-width="1" fill="none" fill-rule="evenodd">
        <mask id="mask-2" fill="white">
            <use xlink:href="#path-1"></use>
        </mask>
        <g id="Combined-Shape"></g>
        <g id="color/GreenVeg" mask="url(#mask-2)" fill="#007944">
            <rect id="Rectangle" x="0" y="0" width="24" height="24"></rect>
        </g>
    </g>
</svg>