<?xml version="1.0" encoding="UTF-8"?>
<svg width="24px" height="24px" viewBox="0 0 24 24" version="1.1" xmlns="http://www.w3.org/2000/svg" xmlns:xlink="http://www.w3.org/1999/xlink">
    <!-- Generator: Sketch 52 (66869) - http://www.bohemiancoding.com/sketch -->
    <title>025-startup</title>
    <desc>Created with Sketch.</desc>
    <defs>
        <path d="M20.6497929,4.69904359 C21.3847466,4.69904359 21.9805069,5.29480383 21.9805069,6.02975751 L21.9805069,17.673733 C21.9805069,18.4086867 21.3847466,19.0044469 20.6497929,19.0044469 L15.4854715,19.0044469 L15.8847771,20.0024062 L15.9921419,20.0024062 C17.0338085,20.0024062 17.6556104,20.4997868 17.6556104,21.3332725 C17.6556104,21.7007493 17.3577303,21.9986294 16.9902534,21.9986294 L7.00974656,21.9986294 C6.64226972,21.9986294 6.3443896,21.7007493 6.3443896,21.3332725 C6.3443896,20.4997868 6.96619148,20.0024062 8.00785815,20.0024062 L8.11522294,20.0024062 L8.51452848,19.0044469 L3.35020705,19.0044469 C2.61525336,19.0044469 2.01949313,18.4086867 2.01949313,17.673733 L2.01949313,6.02975751 C2.01949313,5.29480383 2.61525336,4.69904359 3.35020705,4.69904359 L6.67699194,4.69904359 C6.86080652,4.69904359 7.00974656,4.84798363 7.00974656,5.03164593 C7.00974656,5.21546047 6.86080652,5.36440055 6.67699194,5.36440055 L3.35020705,5.36440055 C2.98273021,5.36440055 2.68485009,5.66228067 2.68485009,6.02975751 L2.68485009,17.673733 C2.68485009,18.0412098 2.98273021,18.3390899 3.35020705,18.3390899 L20.6497929,18.3390899 C21.0172698,18.3390899 21.3151499,18.0412098 21.3151499,17.673733 L21.3151499,6.02975751 C21.3151499,5.66228067 21.0172698,5.36440055 20.6497929,5.36440055 L17.3230081,5.36440055 C17.1391935,5.36440055 16.9902534,5.21546047 16.9902534,5.03164593 C16.9902534,4.84798363 17.1391935,4.69904359 17.3230081,4.69904359 L20.6497929,4.69904359 Z M16.9902534,21.3332725 C16.9902534,21.1684942 16.9902534,20.6677632 15.9921419,20.6677632 L8.00785815,20.6677632 C7.00974656,20.6677632 7.00974656,21.1684942 7.00974656,21.3332725 L16.9902534,21.3332725 Z M15.1677936,20.0024062 L14.768945,19.0044469 L9.23105503,19.0044469 L8.83190178,20.0024062 L15.1677936,20.0024062 Z M10.3365314,17.008376 L13.6634686,17.008376 C13.8471308,17.008376 13.9960709,17.157316 13.9960709,17.3409784 C13.9960709,17.5247929 13.8471308,17.673733 13.6634686,17.673733 L10.3365314,17.673733 C10.1528692,17.673733 10.0039291,17.5247929 10.0039291,17.3409784 C10.0039291,17.157316 10.1528692,17.008376 10.3365314,17.008376 Z M12,5.36440055 C12.9181591,5.36546659 13.6622503,6.10955771 13.6634686,7.02786914 C13.6634686,7.94648513 12.918616,8.6911854 12,8.6911854 C11.081384,8.6911854 10.3365314,7.94648513 10.3365314,7.02786914 C10.3365314,6.10910087 11.081384,5.36440055 12,5.36440055 Z M12,8.02582844 C12.5511391,8.02582844 12.9981116,7.57900824 12.9981116,7.02786914 C12.9981116,6.47657771 12.5511391,6.02975751 12,6.02975751 C11.4488609,6.02975751 11.0018884,6.47657771 11.0018884,7.02786914 C11.0018884,7.57900824 11.4488609,8.02582844 12,8.02582844 Z M16.7034905,9.1998355 L15.0939328,8.76078213 C14.9717958,9.19054579 14.7858492,9.59975024 14.5423368,9.97438475 L15.2935856,10.350999 C15.5188231,10.4635417 15.6606055,10.6941094 15.6595395,10.9458455 L15.6595395,12.3886452 C15.7687318,12.3645833 15.8803606,12.3519432 15.9921419,12.3507249 C16.655519,12.3527047 17.2549342,12.7471369 17.5188536,13.3558419 C18.1724842,13.2883772 18.7767727,13.7100694 18.9391143,14.3467958 L19.9844359,14.3467958 L19.9844359,7.02786914 C19.9844359,6.84405456 19.8354959,6.69511452 19.6516813,6.69511452 L17.988365,6.69511452 C17.8045505,6.69511452 17.6556104,6.54617444 17.6556104,6.36251217 C17.6556104,6.17869759 17.8045505,6.02975751 17.988365,6.02975751 L19.6516813,6.02975751 C20.2029728,6.02975751 20.6497929,6.47657771 20.6497929,7.02786914 L20.6497929,15.3449074 C20.6497929,15.8960466 20.2029728,16.343019 19.6516813,16.343019 L4.34831868,16.343019 C3.79702725,16.343019 3.35020705,15.8960466 3.35020705,15.3449074 L3.35020705,7.02786914 C3.35020705,6.47657771 3.79702725,6.02975751 4.34831868,6.02975751 L6.01163498,6.02975751 C6.19544952,6.02975751 6.3443896,6.17869759 6.3443896,6.36251217 C6.3443896,6.54617444 6.19544952,6.69511452 6.01163498,6.69511452 L4.34831868,6.69511452 C4.16450409,6.69511452 4.01556405,6.84405456 4.01556405,7.02786914 L4.01556405,14.3467958 L5.0608857,14.3467958 C5.2232273,13.7100694 5.8275158,13.2883772 6.48114641,13.3558419 C6.74506578,12.7471369 7.34448099,12.3527047 8.00785815,12.3507249 C8.11963936,12.3519432 8.23126825,12.3645833 8.34046049,12.3886452 L8.34046049,10.9458455 C8.33939448,10.6941094 8.4811769,10.4635417 8.70641445,10.350999 L9.45903387,9.97408015 C9.21552143,9.59929336 9.02972708,9.19024123 8.90774244,8.76047757 L7.29650949,9.19953094 C7.2387914,9.21536915 7.17909354,9.22344053 7.11924341,9.22359281 C6.91776313,9.22283137 6.72740005,9.13100022 6.60160816,8.9736842 C6.47581627,8.81636817 6.42814933,8.61047148 6.4718567,8.41371222 L6.97852703,6.13392418 C7.02710766,5.91416909 7.18366228,5.7338572 7.39427994,5.65481845 L9.1774488,4.98611108 C9.65244272,4.00018273 10.3103375,3.11339543 11.1164108,2.37326385 C11.6211014,1.9275097 12.3788986,1.9275097 12.8835892,2.37326385 C13.6896625,3.11339543 14.3475573,4.00018273 14.8225512,4.98611108 L16.6057201,5.65481845 C16.8163377,5.7338572 16.9728923,5.91416909 17.021473,6.13392418 L17.5281433,8.41371222 C17.572003,8.61047148 17.5243361,8.81652045 17.3985441,8.97383648 C17.2727522,9.13130482 17.0823891,9.22328825 16.8807566,9.22389741 C16.8209065,9.22374509 16.7612086,9.21567371 16.7034905,9.1998355 Z M16.3707359,6.27799097 L15.1385539,5.81548488 C15.2590156,6.20854652 15.3225207,6.61683721 15.3267849,7.02786914 C15.3267849,7.39047269 15.2966314,7.75261939 15.2370858,8.11034965 L16.8787768,8.55808357 L16.3707359,6.27799097 Z M12,10.740558 C13.5918921,10.740558 14.6614279,9.24841617 14.6614279,7.02786914 C14.6614279,6.00706625 14.1291728,4.92824071 13.5107213,4.07358671 C13.0314632,4.27004136 12.5179398,4.36948706 12,4.36628893 C11.4820602,4.36948706 10.9685368,4.27004136 10.4892787,4.07358671 C9.87082724,4.92824071 9.33857211,6.00706625 9.33857211,7.02786914 C9.33857211,8.8475877 10.0570784,10.1763219 11.192556,10.5975573 C11.4509929,10.6930433 11.7245066,10.7414717 12,10.740558 Z M12.3016874,11.3885538 C12.2025463,11.3983004 12.1021869,11.405915 12,11.405915 C11.8978131,11.405915 11.7980628,11.3983004 11.6983126,11.3885538 L12,11.9914717 L12.3016874,11.3885538 Z M11.5571394,2.87186276 L11.5571394,2.8715582 C11.3300743,3.07623656 11.1167154,3.29599169 10.9187378,3.52899606 C11.2673306,3.64488908 11.6326754,3.70306405 12,3.70093197 C12.3673246,3.70306405 12.7326694,3.64488908 13.0812622,3.52899606 C12.8832846,3.29599169 12.6699257,3.07654112 12.4428606,2.87186276 C12.1899062,2.64845266 11.8100938,2.64845266 11.5571394,2.87186276 Z M7.12122317,8.55808357 L8.76291421,8.11034965 C8.70336864,7.75261939 8.67321515,7.39047269 8.67321515,7.02786914 C8.67763156,6.61683721 8.74098439,6.2086988 8.86144614,5.81578944 L7.62789351,6.27829553 L7.12122317,8.55808357 Z M9.00581749,10.9458455 L9.00581749,12.2355933 L9.77001094,11.5033809 L9.77503656,11.4988121 C9.78067129,11.4934819 9.78904724,11.4918068 9.79498658,11.4867812 C9.82300802,11.4622624 9.85514131,11.4427692 9.88986354,11.4292154 C9.89351851,11.4278448 9.89610744,11.4232761 9.89976241,11.4232761 L10.7647722,11.1337719 C10.4353679,10.979654 10.1368787,10.7669042 9.88346736,10.5060307 L9.00581749,10.9458455 Z M16.9703034,13.8172819 C16.8752741,13.3521869 16.4668312,13.0177571 15.9921419,13.0160819 C15.8745736,13.0185185 15.758376,13.0422758 15.6491837,13.0859832 C15.6249696,13.203856 15.5383163,13.2991898 15.4231847,13.3345212 C15.3082054,13.3700049 15.1830227,13.3398514 15.096674,13.2559393 L14.3288255,12.5191581 L14.3288255,14.3467958 C14.3288255,14.5306104 14.1798855,14.6795505 13.9960709,14.6795505 C13.8124086,14.6795505 13.6634686,14.5306104 13.6634686,14.3467958 L13.6634686,11.9780702 L12.8816094,11.7170444 L12.5954557,12.2885904 C12.482913,12.5144371 12.2523453,12.6571333 12,12.6571333 C11.7476547,12.6571333 11.517087,12.5144371 11.4045443,12.2885904 L11.1183906,11.7170444 L10.3365314,11.9780702 L10.3365314,14.3467958 C10.3365314,14.5306104 10.1875914,14.6795505 10.0039291,14.6795505 C9.82011453,14.6795505 9.67117445,14.5306104 9.67117445,14.3467958 L9.67117445,12.5191581 L8.90332599,13.2559393 C8.81697733,13.3395468 8.69179456,13.369548 8.57681527,13.3342166 C8.46183601,13.2988852 8.37533503,13.2037037 8.35081628,13.0859832 C8.241624,13.0422758 8.12542641,13.0185185 8.00785815,13.0160819 C7.53316883,13.0177571 7.12472586,13.3521869 7.02969662,13.8172819 C7.00989884,13.9152047 6.9470029,13.9989645 6.85867444,14.0455653 C6.7701937,14.0921662 6.66557015,14.0964303 6.57358672,14.057444 C6.50079186,14.0280519 6.42281915,14.0132797 6.3443896,14.0141935 C5.97691272,14.0141935 5.67903264,14.3120736 5.67903264,14.6795505 C5.67903264,14.8632127 5.53009256,15.0121528 5.34627798,15.0121528 L4.01556405,15.0121528 L4.01556405,15.3449074 C4.01556405,15.5285697 4.16450409,15.6775098 4.34831868,15.6775098 L19.6516813,15.6775098 C19.8354959,15.6775098 19.9844359,15.5285697 19.9844359,15.3449074 L19.9844359,15.0121528 L18.653722,15.0121528 C18.4699074,15.0121528 18.3209674,14.8632127 18.3209674,14.6795505 C18.3209674,14.3120736 18.0230873,14.0141935 17.6556104,14.0141935 C17.5771808,14.0132797 17.4992081,14.0280519 17.4264133,14.057444 C17.3344299,14.0964303 17.2298063,14.0921662 17.1413256,14.0455653 C17.0529971,13.9989645 16.9901012,13.9152047 16.9703034,13.8172819 Z M14.9941825,12.2355933 L14.9941825,10.9458455 L14.1179033,10.5063353 C13.864492,10.7672088 13.5658504,10.9799586 13.2365984,11.1340765 L14.1016082,11.4235807 C14.1052632,11.4249513 14.1078521,11.42952 14.1115071,11.42952 C14.1462293,11.4432261 14.1783626,11.462567 14.206384,11.4870858 C14.2123234,11.4921113 14.2206993,11.4937865 14.2263341,11.4991167 L14.2313597,11.5036854 L14.9941825,12.2355933 Z" id="path-1"></path>
    </defs>
    <g id="025-startup" stroke="none" stroke-width="1" fill="none" fill-rule="evenodd">
        <mask id="mask-2" fill="white">
            <use xlink:href="#path-1"></use>
        </mask>
        <g id="Combined-Shape" fill-rule="nonzero"></g>
        <g id="color/GreenVeg" mask="url(#mask-2)" fill="#007944">
            <rect id="Rectangle" x="0" y="0" width="24" height="24"></rect>
        </g>
    </g>
</svg>