<?xml version="1.0" encoding="UTF-8"?>
<svg width="92px" height="96px" viewBox="0 0 92 96" version="1.1" xmlns="http://www.w3.org/2000/svg" xmlns:xlink="http://www.w3.org/1999/xlink">
    <!-- Generator: Sketch 52 (66869) - http://www.bohemiancoding.com/sketch -->
    <title>trees</title>
    <desc>Created with Sketch.</desc>
    <g id="Page-1" stroke="none" stroke-width="1" fill="none" fill-rule="evenodd">
        <g id="Our-Approach" transform="translate(-199.000000, -6094.000000)">
            <g id="Secc-Copy-4" transform="translate(0.000000, 5882.000000)">
                <g id="Group-6" transform="translate(199.000000, 212.000000)">
                    <g id="trees">
                        <path d="M45.9875573,57.7444629 C45.8660577,57.7444629 45.7423625,57.7312882 45.6223269,57.7071347 C45.5022912,57.6829811 45.3844514,57.6471168 45.2717349,57.6002736 C45.1575547,57.5534305 45.0492298,57.4956084 44.9482243,57.4282715 C44.845023,57.3609342 44.7491408,57.2818865 44.6627736,57.1955193 C44.5771385,57.1091521 44.4980906,57.014002 44.4307536,56.9108007 C44.3634165,56.809795 44.3055944,56.7007383 44.2587512,56.586558 C44.211908,56.4738417 44.1760438,56.3560017 44.1518903,56.236698 C44.1270048,56.1166625 44.1145621,55.9929671 44.1145621,55.8707358 C44.1145621,55.7492363 44.1270048,55.625541 44.1518903,55.5040415 C44.173848,55.3854698 44.211908,55.2676299 44.2587512,55.1534495 C44.3055944,55.0407332 44.3612207,54.9324084 44.4307536,54.8314027 C44.4980906,54.7282013 44.5771385,54.6323192 44.6627736,54.5459521 C44.7491408,54.4595851 44.845023,54.3812691 44.9482243,54.3117363 C45.0492298,54.2443992 45.1575547,54.1865771 45.2717349,54.1397339 C45.3844514,54.0928907 45.5022912,54.0570265 45.6223269,54.032873 C45.8638621,53.983834 46.1112525,53.983834 46.3535196,54.032873 C46.4728234,54.0570265 46.5913951,54.0928907 46.7033795,54.1397339 C46.8175598,54.1865771 46.9266165,54.2443992 47.0276222,54.3117363 C47.1308235,54.3812691 47.2259738,54.4595851 47.3123408,54.5459521 C47.398708,54.6323192 47.4777559,54.7282013 47.5443611,54.8314027 C47.61243,54.9324084 47.6702519,55.0407332 47.7170951,55.1534495 C47.7639383,55.2676299 47.8012665,55.3854698 47.8239562,55.5040415 C47.8481097,55.625541 47.8612844,55.7492363 47.8612844,55.8707358 C47.8612844,56.364053 47.660737,56.8471232 47.3123408,57.1955193 C47.2259738,57.2818865 47.1300916,57.3609342 47.0276222,57.4282715 C46.9258846,57.4956084 46.8175598,57.5534305 46.7033795,57.6002736 C46.5906632,57.6471168 46.4728234,57.6829811 46.3527876,57.7071347 C46.233484,57.7312882 46.1097888,57.7444629 45.9875573,57.7444629 Z" id="Path" fill="#000000"></path>
                        <path d="M91.8331212,93.6365835 L81.4749236,49.1319056 C81.2773041,48.282873 80.5212258,47.6826948 79.6502355,47.6826948 L74.128596,47.6826948 L74.128596,37.3435272 C81.5224987,36.4183744 87.2622518,30.0930818 87.2622518,22.4532522 C87.2622518,18.4693864 85.6790988,14.665574 82.8860743,11.8615709 C82.9285261,11.4743826 82.9490198,11.0849987 82.9490198,10.694151 C82.9490198,4.79776609 78.1519857,-2.84217094e-14 72.2548689,-2.84217094e-14 C66.3577521,-2.84217094e-14 61.559986,4.79776609 61.559986,10.694151 C61.559986,11.0849987 61.5812118,11.4743826 61.6236633,11.8615709 C60.6311737,12.8577203 59.7916561,13.9804926 59.1212131,15.1925598 C58.451502,13.9804926 57.6119844,12.8577203 56.6194946,11.8615709 C56.6612145,11.4743826 56.6824402,11.0842668 56.6824402,10.694151 C56.6824402,4.79776609 51.8846741,-2.84217094e-14 45.9875573,-2.84217094e-14 C40.0904405,-2.84217094e-14 35.2934063,4.79776609 35.2934063,10.694151 C35.2934063,11.0849987 35.3146321,11.4743826 35.3563517,11.8615709 C34.3638621,12.8577203 33.5243445,13.9804926 32.8546334,15.1925598 C32.1841904,13.9804926 31.3446728,12.8577203 30.352183,11.8615709 C30.3946347,11.4743826 30.4151286,11.0849987 30.4151286,10.694151 C30.4158605,4.79776609 25.6180944,-2.84217094e-14 19.7209776,-2.84217094e-14 C13.8238608,-2.84217094e-14 9.0260947,4.79776609 9.0260947,10.694151 C9.0260947,11.0842668 9.04732047,11.4743826 9.0897722,11.8615709 C6.29674776,14.665574 4.7135947,18.4686545 4.7135947,22.4532522 C4.7135947,30.0930818 10.4533477,36.4183744 17.8472505,37.3435272 L17.8472505,47.6826948 L12.325611,47.6826948 C11.4546206,47.6826948 10.6985425,48.282873 10.5009229,49.1319056 L0.142725352,93.6365835 C0.0124427096,94.1928462 0.144189108,94.7783859 0.499904578,95.2263238 C0.854887984,95.6735298 1.39578034,95.9348269 1.96741344,95.9348269 L90.0084331,95.9348269 C90.5800662,95.9348269 91.1209585,95.6735298 91.475942,95.2263238 C91.8316572,94.7783859 91.9634039,94.1928462 91.8331212,93.6365835 Z M64.8602342,13.9621945 C65.3740454,13.5142566 65.6046015,12.8233198 65.4611443,12.1572682 C65.3594067,11.6800536 65.3074402,11.1882002 65.3074402,10.694151 C65.3074402,6.86398921 68.4239753,3.74745418 72.2548689,3.74745418 C76.0857624,3.74745418 79.2015656,6.86398921 79.2015656,10.694151 C79.2015656,11.1882002 79.150331,11.6800536 79.0478615,12.1580003 C78.9058682,12.8233198 79.1356925,13.5142566 79.6495037,13.9621945 C82.1058426,16.103074 83.5147977,19.1976514 83.5147977,22.4532522 C83.5147977,28.0231989 79.4482243,32.6614053 74.128596,33.5565492 L74.128596,27.9573256 C74.2376527,27.8863289 74.3408541,27.8036215 74.4367363,27.7077393 L79.1576503,22.9875573 C79.8888429,22.2556327 79.8888429,21.0691827 79.1576503,20.3372581 C78.4257257,19.6060655 77.2392757,19.6060655 76.507351,20.3372581 L74.128596,22.7160132 L74.128596,8.95290224 C74.128596,7.9179607 73.2890784,7.07917515 72.2548689,7.07917515 C71.2199274,7.07917515 70.3811418,7.9179607 70.3811418,8.95290224 L70.3811418,22.7160132 L68.0023867,20.3372581 C67.270462,19.6060655 66.0847441,19.6060655 65.3520876,20.3372581 C64.6208948,21.0691827 64.6208948,22.2556327 65.3520876,22.9875573 L70.0730014,27.7077393 C70.1681517,27.8036215 70.2720849,27.8863289 70.3811418,27.9565937 L70.3811418,33.5565492 C65.0607815,32.6621372 60.9949402,28.0231989 60.9949402,22.4532522 C60.9949402,19.1976514 62.4038951,16.103074 64.8602342,13.9621945 Z M70.3811418,37.3435272 L70.3811418,47.6826948 L47.8612844,47.6826948 L47.8612844,37.3435272 C52.7102851,36.7367617 56.8478551,33.8083313 59.1212131,29.7088214 C61.3953029,33.8083313 65.5321411,36.7367617 70.3811418,37.3435272 Z M38.5936545,13.9621945 C39.1067338,13.5142566 39.3372899,12.8233198 39.1945648,12.1572682 C39.0920951,11.6800536 39.0408605,11.1882002 39.0408605,10.694151 C39.0408605,6.86398921 42.1573957,3.74745418 45.9875573,3.74745418 C49.8184508,3.74745418 52.934986,6.86398921 52.934986,10.694151 C52.934986,11.1874681 52.8830193,11.6800536 52.7812818,12.1580003 C52.6385566,12.8240516 52.8691127,13.5142566 53.382192,13.9621945 C55.838531,16.103074 57.247486,19.1976514 57.247486,22.4532522 C57.247486,28.0231989 53.1816446,32.6614053 47.8612844,33.5565492 L47.8612844,27.9565937 C47.9703411,27.8863289 48.0742743,27.8036215 48.1701565,27.7077393 L52.8903387,22.9875573 C53.6222633,22.2556327 53.6222633,21.0691827 52.8903387,20.3372581 C52.158414,19.6060655 50.9726959,19.6060655 50.2400394,20.3372581 L47.8612844,22.7160132 L47.8612844,8.95290224 C47.8612844,7.9179607 47.0224987,7.07917515 45.9875573,7.07917515 C44.9533477,7.07917515 44.1138302,7.9179607 44.1138302,8.95290224 L44.1138302,22.7160132 L41.7350751,20.3372581 C41.0038825,19.6060655 39.8174325,19.6060655 39.0855078,20.3372581 C38.3535832,21.0691827 38.3535832,22.2556327 39.0855078,22.9875573 L43.8056898,27.7077393 C43.901572,27.8036215 44.0047733,27.8863289 44.1138302,27.9565937 L44.1138302,33.5565492 C38.7942019,32.6621372 34.7283605,28.0231989 34.7283605,22.4532522 C34.7283605,19.1976514 36.1365835,16.103074 38.5936545,13.9621945 Z M44.1138302,37.3435272 L44.1138302,47.6826948 L21.5947047,47.6826948 L21.5947047,37.3435272 C26.4429735,36.7367617 30.5805435,33.8083313 32.8546334,29.7088214 C35.1279913,33.8083313 39.2655614,36.7367617 44.1138302,37.3435272 Z M8.46104888,22.4532522 C8.46104888,19.1976514 9.87000377,16.1023422 12.3263429,13.9621945 C12.8401541,13.5142566 13.0699783,12.8240516 12.927985,12.1580003 C12.8255156,11.6800536 12.7735489,11.1874681 12.7735489,10.694151 C12.7735489,6.86398921 15.8900841,3.74745418 19.7209776,3.74745418 C23.5511392,3.74745418 26.6676744,6.86398921 26.6676744,10.694151 C26.6676744,11.1882002 26.6164396,11.6800536 26.5139702,12.1572682 C26.371245,12.8233198 26.6018011,13.5142566 27.1156123,13.9621945 C29.5719514,16.103074 30.9809063,19.1976514 30.9809063,22.4532522 C30.9809063,28.0231989 26.914333,32.6614053 21.5947047,33.5565492 L21.5947047,27.9565937 C21.7037614,27.8863289 21.8069627,27.8036215 21.9028449,27.7077393 L26.6230271,22.9875573 C27.3549517,22.2556327 27.3549517,21.0691827 26.6230271,20.3372581 C25.8911024,19.6060655 24.7053843,19.6060655 23.9734597,20.3372581 L21.5947047,22.7160132 L21.5947047,8.95290224 C21.5947047,7.9179607 20.7551871,7.07917515 19.7209776,7.07917515 C18.6860361,7.07917515 17.8472505,7.9179607 17.8472505,8.95290224 L17.8472505,22.7160132 L15.4684955,20.3372581 C14.7365709,19.6060655 13.5501209,19.6060655 12.8181962,20.3372581 C12.0870035,21.0691827 12.0870035,22.2556327 12.8181962,22.9875573 L17.5391103,27.7077393 C17.6342604,27.8036215 17.7381938,27.8863289 17.8472505,27.9565937 L17.8472505,33.5565492 C12.5268903,32.6621372 8.46104888,28.0231989 8.46104888,22.4532522 Z M12.3380537,92.1873727 L16.3592478,72.8828602 C16.5700421,71.8698765 15.920093,70.8773867 14.9071093,70.6665924 C13.8941256,70.4550662 12.9016357,71.1057472 12.6908414,72.1187309 L8.51008788,92.1873727 L4.32713849,92.1873727 L13.8136138,51.430149 L23.9493062,51.430149 L17.6247454,92.1873727 L12.3380537,92.1873727 Z M34.5483069,92.1873727 L21.4168469,92.1873727 L27.7414079,51.430149 L29.9613353,51.430149 L28.7412169,64.3698446 C28.6446029,65.4003945 29.400681,66.3145685 30.4312309,66.4119145 C30.4912488,66.417038 30.5505346,66.4199657 30.6090886,66.4199657 C31.5649823,66.4199657 32.3810781,65.6924325 32.4725688,64.7219005 L33.7256238,51.430149 L36.2654022,51.430149 L34.5483069,92.1873727 Z M47.8612844,92.1873727 L47.8612844,63.348078 C47.8612844,62.3131365 47.0224987,61.4743509 45.9875573,61.4743509 C44.9533477,61.4743509 44.1138302,62.3131365 44.1138302,63.348078 L44.1138302,92.1873727 L38.298689,92.1873727 L40.0157841,51.430149 L51.9593305,51.430149 L53.6764257,92.1873727 L47.8612844,92.1873727 Z M57.4275394,92.1873727 L55.7104443,51.430149 L58.2494908,51.430149 L59.5032777,64.7219005 C59.5947684,65.6924325 60.4108643,66.4199657 61.3660259,66.4199657 C61.4253119,66.4199657 61.4845978,66.417038 61.5446157,66.4119145 C62.5744335,66.3145685 63.3312437,65.4003945 63.2338976,64.3698446 L62.0137793,51.430149 L64.2337067,51.430149 L70.5582675,92.1873727 L57.4275394,92.1873727 Z M82.938041,92.1873727 L78.7580193,72.1187309 C78.5464932,71.1057472 77.5554671,70.4557981 76.5417515,70.6665924 C75.5280359,70.8773867 74.8780869,71.8698765 75.0888812,72.8828602 L79.1100751,92.1873727 L74.3511011,92.1873727 L68.0265403,51.430149 L78.1622328,51.430149 L87.648708,92.1873727 L82.938041,92.1873727 Z" id="Shape" fill="#007944" fill-rule="nonzero"></path>
                    </g>
                </g>
            </g>
        </g>
    </g>
</svg>